<svg xmlns="http://www.w3.org/2000/svg" xmlns:xlink="http://www.w3.org/1999/xlink" width="500" zoomAndPan="magnify" viewBox="0 0 375 374.999991" height="500" preserveAspectRatio="xMidYMid meet" version="1.0"><defs><clipPath id="39e214733a"><path d="M 0 49.453125 L 375 49.453125 L 375 325.453125 L 0 325.453125 Z M 0 49.453125 " clip-rule="nonzero"/></clipPath></defs><g clip-path="url(#39e214733a)"><path fill="#ffffff" d="M 366.855469 56.027344 C 366.722656 55.726562 366.589844 55.425781 366.457031 55.121094 C 363.121094 56.507812 359.785156 57.886719 356.464844 59.308594 C 355.035156 56.019531 353.609375 52.734375 352.167969 49.453125 C 351.769531 49.617188 351.375 49.78125 350.976562 49.949219 C 352.417969 53.234375 353.867188 56.519531 355.257812 59.828125 C 346.742188 63.554688 338.710938 68.335938 330.296875 72.265625 C 329.152344 68.644531 327.910156 65.058594 326.605469 61.488281 C 326.214844 61.644531 325.820312 61.796875 325.429688 61.949219 C 326.738281 65.539062 327.910156 69.199219 329.0625 72.839844 C 320.664062 77.359375 312.527344 82.3125 303.417969 85.347656 C 302.570312 81.601562 301.628906 77.878906 300.65625 74.164062 C 300.277344 74.277344 299.902344 74.386719 299.527344 74.5 C 300.5 78.226562 301.386719 81.984375 302.230469 85.742188 C 294.367188 88.328125 286.53125 90.554688 278.402344 92.152344 C 277.808594 88.394531 277.167969 84.640625 276.570312 80.886719 C 276.207031 80.964844 275.84375 81.046875 275.480469 81.128906 C 276.074219 84.882812 276.699219 88.636719 277.289062 92.394531 C 270.121094 93.941406 263.03125 94.082031 255.765625 94.636719 C 255.332031 90.890625 254.828125 87.15625 254.34375 83.421875 C 253.972656 83.476562 253.601562 83.539062 253.234375 83.597656 C 253.71875 87.300781 254.226562 91.007812 254.660156 94.71875 C 247.265625 94.757812 239.722656 93.03125 232.464844 91.769531 C 232.207031 87.789062 231.925781 83.8125 231.640625 79.835938 C 231.261719 79.855469 230.882812 79.875 230.503906 79.894531 C 230.78125 83.785156 231.0625 87.675781 231.324219 91.570312 C 223.566406 90.742188 216.597656 87 209.011719 85.777344 C 208.90625 81.523438 208.710938 77.269531 208.527344 73.019531 C 208.144531 73.011719 207.761719 73.003906 207.378906 72.996094 C 207.5625 77.199219 207.773438 81.402344 207.875 85.609375 C 200.285156 83.929688 193.472656 79.621094 185.980469 77.589844 C 185.820312 73.472656 185.660156 69.355469 185.519531 65.238281 C 185.136719 65.214844 184.753906 65.191406 184.371094 65.167969 C 184.507812 69.25 184.683594 73.328125 184.84375 77.410156 C 176.539062 76.097656 168.199219 82.335938 160.175781 83.488281 C 160.144531 79.136719 160.214844 74.78125 160.285156 70.425781 C 159.898438 70.414062 159.515625 70.398438 159.128906 70.390625 C 159.058594 74.863281 159.082031 79.34375 158.957031 83.8125 C 151.214844 86.328125 143.941406 89.554688 135.890625 91.117188 C 135.984375 87.277344 136.03125 83.429688 136.058594 79.589844 C 135.671875 79.585938 135.28125 79.578125 134.894531 79.570312 C 134.863281 83.488281 134.773438 87.410156 134.792969 91.328125 C 127.972656 92.285156 121.367188 93.402344 114.453125 93.542969 C 114.554688 89.804688 115.097656 86.070312 115.371094 82.339844 C 114.980469 82.332031 114.589844 82.320312 114.199219 82.308594 C 113.925781 86.042969 113.464844 89.796875 113.375 93.542969 C 106.441406 93.523438 99.539062 93.152344 92.613281 92.835938 C 92.886719 89.175781 93.164062 85.515625 93.449219 81.855469 C 93.054688 81.839844 92.664062 81.828125 92.265625 81.816406 C 91.984375 85.472656 91.722656 89.128906 91.417969 92.78125 C 83.253906 92.421875 75.296875 90.589844 67.289062 89.140625 C 67.628906 85.246094 67.972656 81.351562 68.347656 77.457031 C 67.945312 77.410156 67.546875 77.363281 67.144531 77.316406 C 66.773438 81.183594 66.410156 85.054688 66.070312 88.925781 C 57.078125 87.035156 49.300781 82.238281 40.765625 79.195312 C 41.117188 74.613281 41.5625 70.039062 41.933594 65.460938 C 41.523438 65.355469 41.109375 65.246094 40.699219 65.140625 C 40.332031 69.679688 39.847656 74.210938 39.503906 78.753906 C 30.765625 75.171875 22.855469 69.582031 13.75 66.8125 C 14.300781 62.46875 14.851562 58.121094 15.402344 53.773438 C 14.988281 53.644531 14.570312 53.519531 14.15625 53.390625 C 13.601562 57.738281 13.050781 62.085938 12.5 66.433594 C 8.398438 65.183594 4.296875 63.9375 0.195312 62.691406 C 0.144531 63.09375 0.09375 63.492188 0.0429688 63.894531 C 4.144531 65.140625 8.246094 66.386719 12.347656 67.636719 C 10.921875 78.90625 13.5 90.195312 14.046875 101.40625 C 10.027344 100.359375 6.074219 99.328125 1.980469 98.597656 C 1.949219 98.988281 1.917969 99.378906 1.886719 99.769531 C 6.019531 100.507812 10.0625 101.871094 14.125 102.925781 C 15.4375 115.125 20.164062 126.964844 21.203125 139.121094 C 17.910156 140.082031 14.496094 140.628906 11.109375 141.140625 C 11.105469 141.492188 11.105469 141.84375 11.101562 142.195312 C 14.511719 141.679688 17.988281 141.324219 21.308594 140.355469 C 22.414062 147.960938 21.800781 156.042969 21.890625 163.71875 C 18.328125 163.6875 14.753906 164.085938 11.191406 164.203125 C 11.1875 164.542969 11.179688 164.886719 11.171875 165.230469 C 14.722656 165.113281 18.34375 164.722656 21.890625 164.855469 C 21.867188 172.433594 22.152344 180.019531 21.984375 187.59375 C 18.351562 187.496094 14.714844 187.484375 11.082031 187.375 C 11.066406 187.703125 11.054688 188.027344 11.039062 188.355469 C 14.679688 188.464844 18.324219 188.535156 21.960938 188.636719 C 21.867188 195.515625 21.875 202.402344 21.589844 209.28125 C 17.851562 208.886719 14.105469 208.558594 10.363281 208.183594 C 10.347656 208.492188 10.324219 208.804688 10.308594 209.113281 C 14.050781 209.488281 17.800781 209.835938 21.539062 210.230469 C 21.097656 218.789062 20.164062 227.324219 19.6875 235.882812 C 15.929688 235.761719 12.152344 235.132812 8.46875 234.40625 C 8.453125 234.734375 8.4375 235.066406 8.421875 235.394531 C 12.128906 236.125 15.828125 237.019531 19.617188 237.140625 C 18.992188 247.234375 18.492188 257.34375 18.210938 267.453125 C 14.445312 267.160156 10.617188 267.507812 6.832031 267.332031 C 6.824219 267.683594 6.816406 268.035156 6.808594 268.382812 C 10.582031 268.5625 14.414062 268.46875 18.171875 268.761719 C 17.964844 277.570312 17.769531 286.386719 17.667969 295.199219 C 13.855469 295.296875 10.042969 295.648438 6.234375 295.851562 C 6.230469 296.207031 6.226562 296.566406 6.222656 296.925781 C 10.03125 296.722656 13.847656 296.410156 17.65625 296.3125 C 17.609375 300.480469 17.570312 304.648438 17.527344 308.816406 C 17.914062 308.800781 18.300781 308.785156 18.6875 308.773438 C 18.730469 304.609375 18.769531 300.445312 18.816406 296.285156 C 26.414062 296.054688 34.167969 298.261719 41.691406 299.21875 C 41.660156 303.75 41.667969 308.285156 41.660156 312.820312 C 42.050781 312.796875 42.4375 312.777344 42.824219 312.753906 C 42.832031 308.28125 42.828125 303.816406 42.851562 299.34375 C 50.707031 300.207031 58.09375 303.816406 65.914062 304.910156 C 65.957031 309.308594 66 313.710938 66.042969 318.109375 C 66.433594 318.070312 66.824219 318.03125 67.210938 317.992188 C 67.171875 313.628906 67.128906 309.265625 67.085938 304.902344 C 74.71875 304.863281 82.378906 301.230469 89.753906 299.53125 C 89.800781 303.972656 89.824219 308.414062 89.878906 312.859375 C 90.265625 312.820312 90.65625 312.78125 91.042969 312.742188 C 90.988281 308.253906 90.980469 303.765625 90.894531 299.277344 C 98.402344 297.730469 105.574219 294.917969 113.222656 293.957031 C 113.140625 298.003906 113.125 302.050781 113.105469 306.097656 C 113.492188 306.066406 113.878906 306.042969 114.265625 306.015625 C 114.28125 301.949219 114.285156 297.878906 114.363281 293.8125 C 121.515625 292.429688 129.148438 291.433594 136.441406 291.773438 C 136.390625 295.6875 136.238281 299.601562 136.152344 303.515625 C 136.53125 303.503906 136.914062 303.488281 137.296875 303.472656 C 137.382812 299.589844 137.550781 295.703125 137.5625 291.816406 C 145.238281 291.683594 151.847656 293.808594 159.25 295.210938 C 159.078125 299.414062 158.816406 303.613281 158.605469 307.8125 C 158.984375 307.816406 159.359375 307.820312 159.734375 307.824219 C 159.941406 303.667969 160.191406 299.511719 160.359375 295.351562 C 167.59375 296.253906 174.660156 299.851562 181.65625 301.851562 C 181.449219 305.261719 181.226562 308.667969 181.011719 312.074219 C 181.382812 312.085938 181.757812 312.097656 182.128906 312.109375 C 182.347656 308.707031 182.570312 305.308594 182.773438 301.902344 C 190.695312 302.265625 198.003906 297.9375 205.714844 297.164062 C 205.46875 301.328125 205.121094 305.488281 204.792969 309.648438 C 205.167969 309.660156 205.542969 309.675781 205.914062 309.6875 C 206.246094 305.476562 206.617188 301.265625 206.867188 297.046875 C 214.898438 295.699219 222.097656 293.15625 230.394531 293.078125 C 230.101562 296.820312 229.851562 300.566406 229.550781 304.308594 C 229.929688 304.328125 230.308594 304.351562 230.683594 304.371094 C 230.984375 300.609375 231.175781 296.820312 231.574219 293.066406 C 239.445312 293.203125 247.007812 293.945312 254.789062 295.078125 C 254.574219 298.90625 254.175781 302.738281 253.808594 306.558594 C 254.183594 306.589844 254.5625 306.625 254.9375 306.660156 C 255.304688 302.859375 255.730469 299.058594 255.945312 295.246094 C 263.859375 296.320312 271.414062 299.046875 279.191406 300.710938 C 278.757812 304.632812 278.371094 308.5625 277.914062 312.488281 C 278.289062 312.535156 278.667969 312.578125 279.046875 312.625 C 279.496094 308.738281 279.917969 304.84375 280.347656 300.949219 C 288.09375 302.554688 295.582031 305.347656 303.332031 306.957031 C 302.792969 310.871094 302.335938 314.796875 301.820312 318.714844 C 302.195312 318.769531 302.574219 318.824219 302.953125 318.875 C 303.46875 314.976562 303.9375 311.066406 304.476562 307.167969 C 311.863281 308.535156 319.445312 309.730469 326.9375 310.347656 C 326.367188 314.269531 325.832031 318.191406 325.28125 322.113281 C 325.65625 322.167969 326.03125 322.21875 326.410156 322.273438 C 326.964844 318.332031 327.503906 314.390625 328.074219 310.453125 C 335.511719 311.167969 343.089844 311.554688 350.449219 312.851562 C 349.855469 317.027344 349.277344 321.203125 348.695312 325.378906 C 349.070312 325.433594 349.449219 325.484375 349.824219 325.539062 C 350.410156 321.367188 350.984375 317.195312 351.578125 313.027344 C 354.726562 313.507812 357.851562 314.15625 360.988281 314.714844 C 361.035156 314.378906 361.085938 314.042969 361.132812 313.707031 C 357.996094 313.148438 354.878906 312.445312 351.730469 311.960938 C 352.929688 303.628906 354.175781 295.296875 355.542969 286.988281 C 358.675781 287.160156 361.84375 287.800781 364.988281 288.101562 C 365.039062 287.765625 365.089844 287.429688 365.144531 287.09375 C 362.019531 286.796875 358.867188 285.777344 355.777344 285.605469 C 357.402344 276.066406 359.210938 266.570312 360.925781 257.046875 C 364.046875 257.121094 367.351562 257.28125 370.464844 257.65625 C 370.523438 257.332031 370.578125 257.007812 370.636719 256.6875 C 367.492188 256.308594 364.25 256.375 361.152344 255.75 C 362.898438 246.058594 364.292969 236.308594 364.398438 226.445312 C 367.519531 226.316406 370.941406 226.164062 374.050781 226.464844 C 374.105469 226.148438 374.160156 225.832031 374.21875 225.515625 C 371.03125 225.207031 367.578125 224.851562 364.417969 224.980469 C 364.582031 214.121094 361.753906 205.492188 360.554688 195.097656 C 363.398438 194.539062 366.457031 194.335938 369.351562 194.304688 C 369.386719 193.996094 369.425781 193.6875 369.457031 193.378906 C 366.441406 193.269531 363.414062 193.292969 360.441406 193.878906 C 358.203125 183.296875 354.472656 172.667969 354.214844 161.761719 C 357.066406 161.40625 359.976562 160.636719 362.855469 160.65625 C 362.867188 160.347656 362.875 160.039062 362.886719 159.730469 C 359.933594 159.710938 357.15625 160.082031 354.234375 160.445312 C 354.652344 147.929688 358.066406 135.878906 359.796875 123.5625 C 363.078125 122.507812 366.457031 120.933594 369.855469 120.375 C 369.8125 120.058594 369.769531 119.746094 369.726562 119.429688 C 366.328125 119.992188 363.1875 121.042969 359.914062 122.09375 C 361.09375 108.164062 365.769531 94.53125 364.652344 80.363281 C 367.949219 78.363281 371.570312 76.835938 375.003906 75.066406 C 374.875 74.757812 374.742188 74.449219 374.613281 74.140625 C 371.242188 75.875 367.613281 77.128906 364.375 79.089844 C 363.34375 72.539062 359.359375 66.320312 356.851562 60.222656 C 360.167969 58.777344 363.515625 57.414062 366.855469 56.023438 Z M 41.703125 297.953125 C 34.160156 296.957031 26.464844 294.886719 18.835938 295.167969 C 18.933594 286.398438 19.128906 277.621094 19.328125 268.855469 C 26.933594 269.449219 34.480469 270.167969 41.992188 271.535156 C 41.851562 280.339844 41.75 289.148438 41.703125 297.953125 Z M 42.011719 270.105469 C 34.511719 268.695312 26.960938 268.136719 19.363281 267.542969 C 19.640625 257.472656 20.136719 247.398438 20.753906 237.339844 C 28.148438 238.714844 35.492188 240.394531 42.894531 241.6875 C 42.433594 251.148438 42.164062 260.628906 42.011719 270.105469 Z M 42.964844 240.3125 C 35.566406 239.019531 28.234375 237.292969 20.84375 235.921875 C 21.320312 227.390625 22.246094 218.882812 22.6875 210.351562 C 29.910156 211.003906 37.003906 213.1875 44.160156 214.394531 C 43.859375 223.035156 43.386719 231.675781 42.964844 240.3125 Z M 44.203125 213.191406 C 37.054688 211.988281 29.949219 209.996094 22.722656 209.390625 C 22.953125 202.484375 22.996094 195.574219 23.074219 188.667969 C 30.175781 188.859375 37.367188 188.886719 44.445312 189.550781 C 44.488281 197.429688 44.503906 205.3125 44.207031 213.1875 Z M 44.4375 188.351562 C 37.34375 187.808594 30.207031 187.820312 23.09375 187.628906 C 23.25 180.039062 23.066406 172.425781 22.980469 164.839844 C 29.917969 164.5 36.882812 164.066406 43.832031 164.113281 C 44.21875 172.183594 44.394531 180.273438 44.441406 188.351562 Z M 43.769531 162.855469 C 36.828125 162.875 29.894531 163.335938 22.964844 163.671875 C 22.875 155.960938 23.550781 147.785156 22.335938 140.160156 C 29.023438 139.085938 35.296875 137.8125 42.128906 137.792969 C 42.867188 146.148438 43.363281 154.480469 43.765625 162.859375 Z M 42.011719 136.484375 C 35.179688 136.503906 28.816406 137.253906 22.171875 138.847656 C 21.148438 126.902344 16.710938 115.226562 15.371094 103.253906 C 23.277344 105.308594 31.363281 107.191406 39.371094 108.78125 C 39.867188 118.058594 41.191406 127.242188 42.011719 136.484375 Z M 39.292969 107.355469 C 31.324219 105.722656 23.164062 103.777344 15.296875 101.730469 C 14.511719 90.566406 12.179688 79.238281 13.605469 68.015625 C 22.710938 70.785156 30.675781 76.390625 39.417969 80.011719 C 38.71875 89.128906 38.761719 98.230469 39.292969 107.355469 Z M 65.914062 303.574219 C 58.140625 302.332031 50.664062 298.9375 42.867188 298.078125 C 42.914062 289.300781 42.996094 280.523438 43.132812 271.746094 C 50.671875 273.164062 58.089844 273.90625 65.734375 274.496094 C 65.707031 284.1875 65.851562 293.882812 65.910156 303.574219 Z M 65.742188 273.03125 C 58.109375 272.464844 50.683594 271.734375 43.15625 270.320312 C 43.304688 260.835938 43.609375 251.355469 44.007812 241.882812 C 51.324219 243.230469 58.652344 244.441406 66.089844 244.890625 C 65.90625 254.269531 65.804688 263.652344 65.742188 273.03125 Z M 66.113281 243.5 C 58.6875 243.027344 51.394531 241.785156 44.078125 240.507812 C 44.5 231.875 44.941406 223.242188 45.238281 214.605469 C 52.304688 215.992188 59.484375 216.507812 66.652344 217.03125 C 66.582031 225.855469 66.273438 234.679688 66.113281 243.5 Z M 66.65625 215.734375 C 59.5 215.210938 52.34375 214.703125 45.28125 213.367188 C 45.578125 205.457031 45.5625 197.539062 45.519531 189.625 C 52.554688 190.085938 59.609375 190.410156 66.660156 190.601562 C 66.773438 198.976562 66.707031 207.355469 66.660156 215.730469 Z M 66.640625 189.335938 C 59.59375 189.148438 52.542969 188.882812 45.511719 188.421875 C 45.4375 180.320312 45.253906 172.21875 44.890625 164.125 C 51.886719 164.1875 58.875 164.386719 65.871094 164.617188 C 66.175781 172.855469 66.527344 181.089844 66.640625 189.335938 Z M 65.816406 163.363281 C 58.820312 163.125 51.828125 162.953125 44.828125 162.867188 C 44.425781 154.488281 43.921875 146.144531 43.179688 137.785156 C 50.371094 137.761719 57.550781 138.351562 64.714844 138.917969 C 64.964844 147.066406 65.410156 155.21875 65.816406 163.363281 Z M 64.679688 137.707031 C 57.488281 137.132812 50.28125 136.457031 43.066406 136.480469 C 42.253906 127.328125 41.15625 118.226562 40.585938 109.054688 C 48.429688 111.089844 56.542969 112.449219 64.539062 113.75 C 64.429688 121.738281 64.445312 129.714844 64.679688 137.707031 Z M 64.554688 112.53125 C 56.492188 111.160156 48.414062 109.65625 40.496094 107.601562 C 39.992188 98.566406 39.992188 89.480469 40.679688 80.453125 C 49.054688 83.886719 57.105469 87.949219 65.984375 90.015625 C 65.328125 97.503906 64.742188 105.019531 64.554688 112.53125 Z M 89.753906 298.304688 C 82.386719 300.015625 74.695312 303.707031 67.082031 303.746094 C 67.019531 294.023438 66.859375 284.304688 66.882812 274.585938 C 74.507812 275.171875 82.011719 274.304688 89.539062 273.082031 C 89.613281 281.492188 89.6875 289.898438 89.753906 298.308594 Z M 89.535156 271.714844 C 82.019531 272.933594 74.5 273.6875 66.890625 273.121094 C 66.953125 263.730469 67.054688 254.347656 67.214844 244.960938 C 74.609375 245.433594 82.199219 245.28125 89.582031 244.679688 C 89.511719 253.691406 89.511719 262.703125 89.535156 271.71875 Z M 89.589844 243.335938 C 82.214844 243.9375 74.625 244.050781 67.238281 243.574219 C 67.382812 234.753906 67.6875 225.933594 67.738281 217.113281 C 75.066406 217.644531 82.46875 217.289062 89.800781 217.015625 C 89.714844 225.789062 89.660156 234.5625 89.589844 243.335938 Z M 89.816406 215.6875 C 82.476562 215.960938 75.078125 216.351562 67.742188 215.816406 C 67.789062 207.417969 67.851562 199.027344 67.734375 190.632812 C 75.015625 190.828125 82.308594 190.773438 89.585938 190.539062 C 89.753906 198.917969 89.871094 207.304688 89.8125 215.6875 Z M 89.558594 189.289062 C 82.285156 189.519531 74.996094 189.5625 67.714844 189.367188 C 67.601562 181.125 67.242188 172.890625 66.941406 164.652344 C 74.144531 164.894531 81.351562 165.042969 88.550781 165.21875 C 88.964844 173.234375 89.382812 181.265625 89.558594 189.289062 Z M 88.492188 164.023438 C 81.292969 163.84375 74.089844 163.644531 66.890625 163.402344 C 66.488281 155.277344 66.082031 147.140625 65.832031 139.007812 C 73.144531 139.589844 80.457031 140.113281 87.773438 140.640625 C 87.878906 148.4375 88.089844 156.230469 88.492188 164.023438 Z M 87.757812 139.472656 C 80.433594 138.945312 73.113281 138.378906 65.792969 137.796875 C 65.558594 129.847656 65.582031 121.894531 65.738281 113.941406 C 73.414062 114.878906 81.0625 115.839844 88.773438 116.464844 C 88.210938 124.117188 87.652344 131.796875 87.753906 139.472656 Z M 88.859375 115.304688 C 81.128906 114.679688 73.441406 113.796875 65.761719 112.738281 C 66.136719 105.230469 66.546875 97.722656 67.199219 90.230469 C 75.183594 91.746094 83.179688 93.492188 91.332031 93.808594 C 90.699219 100.992188 89.699219 108.144531 88.859375 115.304688 Z M 113.242188 292.871094 C 105.691406 294.304688 98.375 296.351562 90.894531 298.050781 C 90.828125 289.664062 90.761719 281.28125 90.6875 272.898438 C 98.210938 271.675781 105.734375 270.445312 113.261719 269.257812 C 113.265625 277.128906 113.261719 285 113.242188 292.871094 Z M 113.261719 268.011719 C 105.738281 269.199219 98.203125 270.3125 90.683594 271.53125 C 90.660156 262.546875 90.660156 253.566406 90.71875 244.582031 C 98.261719 243.964844 105.769531 243.15625 113.292969 242.351562 C 113.265625 250.90625 113.257812 259.457031 113.261719 268.011719 Z M 113.296875 241.035156 C 105.777344 241.839844 98.265625 242.625 90.730469 243.242188 C 90.800781 234.488281 90.847656 225.730469 90.933594 216.972656 C 98.488281 216.691406 105.992188 215.960938 113.519531 215.3125 C 113.445312 223.886719 113.335938 232.460938 113.296875 241.035156 Z M 113.527344 214.03125 C 106 214.664062 98.496094 215.363281 90.945312 215.644531 C 91.011719 207.265625 90.902344 198.878906 90.71875 190.5 C 98.269531 190.261719 105.867188 190.070312 113.378906 189.222656 C 113.566406 197.496094 113.578125 205.757812 113.527344 214.035156 Z M 113.328125 188.027344 C 105.789062 188.660156 98.25 189.011719 90.691406 189.253906 C 90.511719 181.25 90.070312 173.242188 89.65625 165.25 C 96.882812 165.429688 104.117188 165.398438 111.34375 165.46875 C 111.984375 173 112.898438 180.476562 113.332031 188.027344 Z M 111.246094 164.316406 C 104.03125 164.25 96.808594 164.230469 89.59375 164.050781 C 89.191406 156.277344 88.976562 148.503906 88.871094 140.722656 C 95.871094 141.226562 102.875 141.640625 109.871094 142.152344 C 110.058594 149.570312 110.660156 156.925781 111.242188 164.320312 Z M 109.84375 141.011719 C 102.851562 140.496094 95.851562 140.058594 88.855469 139.554688 C 88.753906 131.878906 89.324219 124.207031 89.886719 116.558594 C 96.90625 117.128906 103.933594 117.667969 110.96875 117.953125 C 110.324219 125.632812 109.824219 133.296875 109.84375 141.011719 Z M 111.066406 116.765625 C 104.027344 116.480469 96.996094 115.964844 89.972656 115.394531 C 90.832031 108.21875 91.902344 101.050781 92.535156 93.855469 C 99.476562 94.164062 106.382812 94.621094 113.335938 94.597656 C 112.570312 101.980469 111.699219 109.367188 111.066406 116.765625 Z M 136.46875 290.621094 C 129.191406 290.40625 121.507812 291.273438 114.371094 292.652344 C 114.390625 284.792969 114.40625 276.9375 114.402344 269.078125 C 121.863281 267.941406 129.28125 267.519531 136.804688 267.160156 C 136.726562 274.980469 136.617188 282.800781 136.46875 290.625 Z M 136.820312 265.902344 C 129.296875 266.261719 121.859375 266.6875 114.402344 267.832031 C 114.398438 259.300781 114.414062 250.765625 114.4375 242.230469 C 121.949219 241.425781 129.460938 240.660156 136.988281 240.050781 C 136.917969 248.667969 136.90625 257.285156 136.820312 265.902344 Z M 137 238.742188 C 129.46875 239.355469 121.953125 240.109375 114.441406 240.910156 C 114.480469 232.347656 114.601562 223.78125 114.671875 215.214844 C 122.230469 214.582031 129.765625 213.800781 137.34375 213.363281 C 137.199219 221.824219 137.074219 230.28125 137 238.742188 Z M 137.363281 212.089844 C 129.78125 212.527344 122.246094 213.300781 114.679688 213.9375 C 114.726562 205.65625 114.835938 197.390625 114.550781 189.113281 C 122.253906 188.554688 129.9375 187.234375 137.648438 187.007812 C 138.378906 195.285156 137.558594 203.785156 137.363281 212.089844 Z M 137.503906 185.921875 C 129.8125 186.378906 122.171875 187.382812 114.488281 187.945312 C 114.0625 180.417969 113.074219 172.980469 112.4375 165.480469 C 119.472656 165.433594 126.492188 165.371094 133.527344 165.441406 C 134.992188 172.25 136.382812 179.046875 137.503906 185.921875 Z M 133.308594 164.421875 C 126.320312 164.351562 119.328125 164.394531 112.339844 164.328125 C 111.746094 156.953125 111.082031 149.628906 110.898438 142.226562 C 117.457031 142.6875 124.03125 143.015625 130.570312 143.753906 C 130.5 150.726562 131.824219 157.636719 133.308594 164.421875 Z M 130.578125 142.578125 C 124.039062 141.839844 117.449219 141.515625 110.882812 141.082031 C 110.867188 133.355469 111.363281 125.6875 112.007812 117.996094 C 118.796875 118.269531 125.550781 118.15625 132.339844 117.96875 C 131.453125 126.175781 130.660156 134.320312 130.578125 142.578125 Z M 132.5 116.648438 C 125.71875 117.078125 118.890625 117.082031 112.105469 116.808594 C 112.722656 109.390625 113.585938 101.980469 114.351562 94.578125 C 121.269531 94.4375 127.980469 93.675781 134.769531 92.359375 C 134.570312 100.441406 133.492188 108.625 132.5 116.648438 Z M 159.300781 294.109375 C 151.902344 292.386719 145.175781 291.191406 137.585938 290.699219 C 137.738281 282.835938 137.867188 274.96875 137.945312 267.105469 C 145.398438 267.097656 152.734375 267.289062 160.167969 267.8125 C 160 276.582031 159.707031 285.347656 159.300781 294.109375 Z M 160.199219 266.289062 C 152.777344 266.160156 145.398438 265.808594 137.960938 265.847656 C 138.046875 257.21875 138.058594 248.589844 138.128906 239.960938 C 145.621094 239.351562 153.109375 238.804688 160.582031 238.03125 C 160.511719 247.453125 160.40625 256.871094 160.199219 266.289062 Z M 160.59375 236.753906 C 153.121094 237.523438 145.628906 238.066406 138.140625 238.652344 C 138.222656 230.199219 138.34375 221.75 138.484375 213.296875 C 145.882812 212.867188 153.304688 212.628906 160.722656 212.730469 C 160.722656 220.738281 160.652344 228.746094 160.59375 236.753906 Z M 160.71875 211.542969 C 153.308594 211.417969 145.902344 211.59375 138.503906 212.023438 C 138.679688 203.746094 139.425781 195.3125 138.695312 187.058594 C 145.699219 187.394531 152.695312 187.835938 159.6875 188.28125 C 160.496094 196.019531 160.652344 203.773438 160.71875 211.542969 Z M 159.570312 187.136719 C 152.582031 186.6875 145.59375 186.25 138.597656 185.910156 C 137.761719 179.019531 136.027344 172.230469 134.566406 165.449219 C 141.605469 165.523438 148.644531 165.75 155.683594 165.902344 C 157.492188 172.890625 158.816406 179.953125 159.570312 187.136719 Z M 155.410156 164.90625 C 148.390625 164.875 141.371094 164.5625 134.347656 164.441406 C 132.867188 157.6875 131.449219 150.808594 131.511719 143.863281 C 137.949219 144.597656 144.539062 146.066406 151.003906 145.074219 C 150.265625 151.574219 153.796875 158.667969 155.410156 164.910156 Z M 151.238281 143.679688 C 144.65625 144.6875 138.078125 143.445312 131.527344 142.6875 C 131.609375 134.382812 132.398438 126.128906 133.40625 117.886719 C 140.941406 117.199219 148.3125 115.976562 155.75 114.582031 C 154.324219 124.285156 152.835938 134.003906 151.238281 143.679688 Z M 155.964844 113.085938 C 148.515625 114.484375 141.125 115.863281 133.570312 116.550781 C 134.566406 108.492188 135.671875 100.269531 135.871094 92.144531 C 143.875 90.59375 151.203125 87.648438 158.921875 85.140625 C 158.65625 94.503906 157.375 103.835938 155.964844 113.085938 Z M 181.714844 300.96875 C 175.230469 298.285156 167.371094 295.125 160.410156 294.257812 C 160.769531 285.445312 161.105469 276.640625 161.296875 267.824219 C 168.714844 267.910156 176.078125 269.355469 183.523438 269.453125 C 183.078125 279.96875 182.367188 290.46875 181.714844 300.96875 Z M 183.617188 267.484375 C 176.15625 267.582031 168.769531 266.386719 161.332031 266.300781 C 161.539062 256.839844 161.652344 247.375 161.722656 237.914062 C 169.117188 237.148438 177.289062 236.605469 184.445312 234.636719 C 184.398438 245.585938 184.117188 256.542969 183.617188 267.484375 Z M 184.449219 233.550781 C 177.136719 235.230469 169.207031 235.863281 161.730469 236.632812 C 161.792969 228.671875 161.847656 220.707031 161.84375 212.746094 C 169.339844 212.847656 176.835938 212.9375 184.332031 213.027344 C 184.441406 219.867188 184.476562 226.707031 184.449219 233.550781 Z M 184.3125 211.914062 C 176.824219 211.828125 169.335938 211.664062 161.84375 211.5625 C 161.789062 203.808594 161.589844 196.070312 160.78125 188.355469 C 168.277344 188.835938 175.785156 189.046875 183.296875 189.058594 C 183.917969 196.660156 184.226562 204.289062 184.316406 211.914062 Z M 183.21875 187.875 C 175.703125 187.992188 168.15625 187.683594 160.660156 187.203125 C 159.902344 179.984375 158.460938 172.964844 156.816406 165.898438 C 164.847656 165.730469 172.847656 165.449219 180.875 165.167969 C 181.792969 172.726562 182.726562 180.269531 183.214844 187.871094 Z M 180.734375 164.03125 C 172.667969 164.402344 164.613281 164.59375 156.546875 164.902344 C 154.859375 158.363281 152.179688 151.667969 152.273438 144.878906 C 161.171875 143.046875 170.179688 141.308594 179.234375 140.449219 C 179.117188 148.308594 179.542969 156.257812 180.734375 164.03125 Z M 179.304688 139.085938 C 170.289062 140.011719 161.445312 142.113281 152.503906 143.484375 C 154.105469 133.800781 155.523438 124.058594 156.953125 114.347656 C 165.1875 112.402344 173.53125 110.949219 181.964844 110.304688 C 180.792969 119.886719 179.789062 129.441406 179.304688 139.085938 Z M 182.160156 108.71875 C 173.714844 109.371094 165.433594 110.851562 157.191406 112.800781 C 158.617188 103.511719 159.890625 94.140625 160.15625 84.738281 C 166.875 82.917969 178.34375 77.503906 184.890625 78.535156 C 184.996094 88.609375 183.378906 98.742188 182.160156 108.71875 Z M 205.777344 296.148438 C 198.046875 296.921875 190.757812 301.386719 182.828125 301.019531 C 183.460938 290.492188 184.171875 279.972656 184.671875 269.4375 C 192.332031 269.335938 199.984375 268.511719 207.628906 268.039062 C 207.105469 277.414062 206.425781 286.777344 205.777344 296.148438 Z M 207.71875 266.457031 C 200.082031 266.351562 192.410156 267.367188 184.765625 267.46875 C 185.261719 256.417969 185.582031 245.355469 185.625 234.296875 C 191.375 232.984375 202.464844 236.226562 208.671875 237.191406 C 208.601562 246.953125 208.273438 256.714844 207.71875 266.457031 Z M 208.675781 235.957031 C 201.1875 234.789062 193.214844 232.601562 185.628906 233.210938 C 185.644531 226.484375 185.601562 219.761719 185.488281 213.039062 C 193.097656 213.132812 200.726562 212.789062 208.328125 213.097656 C 208.496094 220.71875 208.699219 228.339844 208.679688 235.957031 Z M 208.292969 211.90625 C 200.683594 211.875 193.082031 212.019531 185.46875 211.925781 C 185.34375 204.28125 184.976562 196.664062 184.484375 189.035156 C 192.226562 188.882812 199.960938 188.71875 207.691406 188.171875 C 207.929688 196.082031 208.082031 203.996094 208.292969 211.90625 Z M 207.65625 186.972656 C 199.910156 187.523438 192.164062 187.699219 184.40625 187.851562 C 183.914062 180.25 183.03125 172.6875 182.109375 165.125 C 190.3125 164.839844 198.511719 164.386719 206.714844 164.132812 C 207.085938 171.746094 207.453125 179.355469 207.652344 186.976562 Z M 206.660156 162.984375 C 198.425781 163.226562 190.199219 163.648438 181.96875 163.988281 C 181.015625 156.140625 180.449219 148.242188 180.5625 140.335938 C 189.101562 139.59375 197.546875 139.171875 206.121094 139.238281 C 206.03125 147.15625 206.316406 155.070312 206.664062 162.980469 Z M 206.132812 137.980469 C 197.582031 137.914062 189.152344 138.226562 180.632812 138.96875 C 181.125 129.351562 182.074219 119.808594 183.230469 110.246094 C 191.382812 110.511719 199.335938 111.199219 207.402344 112.472656 C 206.871094 120.957031 206.230469 129.480469 206.132812 137.980469 Z M 207.488281 111.132812 C 199.457031 109.871094 191.546875 108.945312 183.417969 108.683594 C 184.613281 98.808594 186.070312 88.8125 185.996094 78.847656 C 193.441406 81.078125 200.390625 84.78125 207.90625 86.789062 C 208.105469 94.898438 208.023438 103.039062 207.488281 111.132812 Z M 230.464844 292.117188 C 222.210938 292.195312 214.90625 294.097656 206.945312 295.964844 C 207.691406 286.675781 208.273438 277.367188 208.800781 268.0625 C 216.53125 268.214844 224.253906 268.21875 231.996094 268.539062 C 231.527344 276.402344 230.992188 284.257812 230.464844 292.117188 Z M 232.070312 267.257812 C 224.332031 266.9375 216.628906 266.632812 208.890625 266.484375 C 209.4375 256.789062 209.722656 247.085938 209.835938 237.378906 C 217.535156 238.667969 225.230469 239.976562 232.925781 241.273438 C 232.855469 249.9375 232.585938 258.609375 232.070312 267.257812 Z M 232.9375 239.972656 C 225.242188 238.671875 217.546875 237.34375 209.839844 236.140625 C 209.859375 228.464844 209.667969 220.789062 209.476562 213.113281 C 217.179688 213.136719 224.878906 213.765625 232.535156 214.589844 C 232.796875 223.050781 233 231.507812 232.933594 239.972656 Z M 232.496094 213.296875 C 224.851562 212.472656 217.136719 211.933594 209.445312 211.910156 C 209.230469 203.972656 209.09375 196.027344 208.851562 188.089844 C 216.289062 187.558594 224.035156 186.425781 231.472656 187.269531 C 231.414062 195.949219 232.226562 204.621094 232.496094 213.296875 Z M 231.507812 186.148438 C 223.96875 185.488281 216.34375 186.441406 208.816406 186.890625 C 208.652344 179.289062 208.308594 171.691406 207.941406 164.097656 C 215.933594 163.925781 223.941406 163.828125 231.925781 164.261719 C 231.984375 171.558594 231.863281 178.859375 231.507812 186.144531 Z M 231.914062 163.132812 C 223.902344 162.789062 215.90625 162.808594 207.890625 162.953125 C 207.574219 155.0625 207.199219 147.148438 207.382812 139.25 C 215.433594 139.535156 223.46875 139.855469 231.507812 140.371094 C 231.25 147.941406 231.855469 155.554688 231.917969 163.132812 Z M 231.546875 139.179688 C 223.503906 138.65625 215.457031 138.175781 207.398438 137.988281 C 207.488281 129.539062 208.097656 121.070312 208.605469 112.636719 C 216.488281 113.410156 224.308594 115 232.160156 116.058594 C 232.175781 123.765625 231.808594 131.476562 231.546875 139.179688 Z M 232.148438 114.910156 C 224.316406 113.820312 216.53125 112.300781 208.691406 111.324219 C 209.222656 103.222656 209.242188 95.070312 209.042969 86.960938 C 216.597656 88.476562 223.75 91.371094 231.394531 92.699219 C 231.875 100.097656 232.070312 107.5 232.148438 114.910156 Z M 254.867188 294.023438 C 247.082031 292.964844 239.523438 292.027344 231.644531 292.105469 C 232.171875 284.265625 232.707031 276.429688 233.171875 268.589844 C 241.050781 269.539062 248.847656 270.789062 256.679688 272.042969 C 256.113281 279.375 255.519531 286.703125 254.867188 294.027344 Z M 256.773438 270.867188 C 248.925781 269.609375 241.144531 268.257812 233.25 267.308594 C 233.761719 258.707031 234.035156 250.085938 234.101562 241.472656 C 242.101562 242.824219 250.066406 244.289062 258.035156 245.792969 C 257.628906 254.15625 257.378906 262.511719 256.769531 270.867188 Z M 258.101562 244.484375 C 250.113281 242.980469 242.128906 241.527344 234.113281 240.171875 C 234.183594 231.683594 233.992188 223.203125 233.730469 214.71875 C 242.074219 215.667969 250.375 217.070312 258.667969 218.371094 C 258.847656 227.050781 258.523438 235.816406 258.101562 244.484375 Z M 258.640625 217.039062 C 250.347656 215.738281 242.039062 214.320312 233.691406 213.421875 C 233.421875 204.777344 232.671875 196.140625 232.730469 187.488281 C 241.15625 188.949219 249.664062 190.082031 258.148438 191.15625 C 258.285156 199.78125 258.460938 208.410156 258.640625 217.039062 Z M 258.117188 189.886719 C 249.648438 188.789062 241.148438 187.761719 232.738281 186.308594 C 232.921875 178.976562 233.199219 171.664062 233.144531 164.332031 C 241.328125 164.777344 249.496094 165.457031 257.671875 166.027344 C 257.882812 173.980469 257.871094 181.9375 258.117188 189.886719 Z M 257.640625 164.824219 C 249.46875 164.335938 241.308594 163.648438 233.132812 163.199219 C 233.074219 155.625 232.558594 148.027344 232.746094 140.453125 C 240.929688 140.980469 249.117188 141.433594 257.3125 141.691406 C 257.386719 149.402344 257.515625 157.113281 257.640625 164.824219 Z M 257.296875 140.523438 C 249.117188 140.316406 240.953125 139.785156 232.789062 139.257812 C 233.050781 131.589844 233.414062 123.898438 233.335938 116.222656 C 241.085938 117.296875 248.871094 117.730469 256.683594 117.976562 C 257.117188 125.484375 257.160156 133.007812 257.296875 140.523438 Z M 256.621094 116.875 C 248.816406 116.628906 241.0625 116.148438 233.320312 115.074219 C 233.242188 107.671875 233.015625 100.28125 232.535156 92.894531 C 239.875 94.167969 247.3125 95.628906 254.777344 95.777344 C 255.589844 102.796875 256.210938 109.820312 256.621094 116.875 Z M 279.308594 299.664062 C 271.539062 297.957031 263.949219 295.253906 256.042969 294.183594 C 256.691406 286.871094 257.3125 279.554688 257.871094 272.234375 C 265.910156 273.628906 273.734375 276.066406 281.609375 278.140625 C 280.839844 285.316406 280.097656 292.492188 279.304688 299.664062 Z M 281.734375 276.996094 C 273.914062 274.734375 266.011719 272.394531 257.964844 271.054688 C 258.605469 262.722656 258.898438 254.378906 259.304688 246.03125 C 267.734375 247.621094 276.117188 249.5 284.511719 251.269531 C 283.578125 259.84375 282.636719 268.417969 281.734375 276.996094 Z M 284.625 249.917969 C 276.214844 248.15625 267.808594 246.316406 259.367188 244.726562 C 259.789062 236.042969 260.121094 227.273438 259.992188 218.578125 C 268.867188 219.96875 277.734375 221.511719 286.648438 222.628906 C 286.519531 231.78125 285.335938 240.8125 284.625 249.921875 Z M 286.664062 221.246094 C 277.738281 220.128906 268.851562 218.640625 259.964844 217.246094 C 259.785156 208.605469 259.613281 199.960938 259.476562 191.324219 C 268.214844 192.449219 276.976562 193.378906 285.742188 194.257812 C 286.6875 203.257812 286.792969 212.207031 286.667969 221.246094 Z M 285.601562 192.910156 C 276.871094 192.035156 268.140625 191.1875 259.4375 190.058594 C 259.191406 182.074219 259.164062 174.085938 258.925781 166.105469 C 267.046875 166.609375 275.144531 167.074219 283.28125 167.269531 C 283.832031 175.828125 284.707031 184.378906 285.601562 192.910156 Z M 283.203125 166.015625 C 275.082031 165.820312 266.996094 165.390625 258.890625 164.898438 C 258.761719 157.171875 258.667969 149.445312 258.535156 141.71875 C 266.429688 141.867188 274.25 141.738281 282.128906 141.242188 C 282.3125 149.519531 282.667969 157.753906 283.203125 166.015625 Z M 282.105469 140.039062 C 274.222656 140.53125 266.414062 140.691406 258.515625 140.546875 C 258.378906 133.035156 258.292969 125.519531 257.863281 118.015625 C 265.601562 117.980469 273.273438 117.445312 280.953125 116.515625 C 281.710938 124.34375 281.933594 132.179688 282.105469 140.039062 Z M 280.824219 115.367188 C 273.15625 116.296875 265.523438 116.839844 257.796875 116.914062 C 257.386719 109.820312 256.710938 102.757812 255.890625 95.699219 C 263.171875 95.140625 270.269531 94.992188 277.453125 93.441406 C 278.851562 100.710938 279.996094 108.011719 280.824219 115.367188 Z M 303.472656 305.960938 C 295.726562 304.28125 288.21875 301.511719 280.460938 299.90625 C 281.246094 292.78125 282.042969 285.660156 282.800781 278.53125 C 290.585938 281.074219 298.660156 283.03125 306.253906 286.117188 C 305.339844 292.734375 304.390625 299.34375 303.472656 305.960938 Z M 306.414062 284.988281 C 298.816406 281.902344 290.777344 279.730469 282.9375 277.359375 C 283.949219 268.765625 284.867188 260.148438 285.800781 251.542969 C 294.152344 253.3125 302.546875 255.101562 311.046875 255.988281 C 309.433594 265.644531 307.753906 275.285156 306.414062 284.984375 Z M 311.335938 254.476562 C 302.796875 253.578125 294.320312 251.953125 285.921875 250.191406 C 286.714844 241.058594 287.886719 231.988281 288.089844 222.808594 C 297.492188 224.066406 306.898438 225.175781 316.34375 226.085938 C 315 235.609375 313.164062 245.035156 311.335938 254.476562 Z M 316.539062 224.703125 C 307.039062 223.789062 297.578125 222.613281 288.109375 221.429688 C 288.230469 212.367188 288.015625 203.410156 287.070312 194.390625 C 295.839844 195.269531 304.648438 195.828125 313.445312 196.378906 C 315.507812 205.4375 317.851562 215.371094 316.539062 224.699219 Z M 313.050781 194.894531 C 304.339844 194.523438 295.601562 193.910156 286.925781 193.042969 C 286.027344 184.46875 285.089844 175.886719 284.488281 167.289062 C 291.695312 167.132812 298.859375 167.199219 306.054688 166.539062 C 307.839844 176.132812 310.527344 185.476562 313.046875 194.894531 Z M 305.910156 165.1875 C 298.75 165.917969 291.585938 165.867188 284.398438 166.019531 C 283.8125 157.734375 283.492188 149.476562 283.308594 141.171875 C 291.027344 140.683594 298.597656 139.664062 306.257812 138.597656 C 305.667969 147.554688 305.085938 156.226562 305.910156 165.183594 Z M 306.34375 137.265625 C 298.648438 138.332031 291.042969 139.476562 283.28125 139.964844 C 283.105469 132.082031 282.9375 124.210938 282.136719 116.359375 C 290.425781 114.941406 298.550781 113.269531 306.632812 110.917969 C 307.121094 119.722656 307.09375 128.480469 306.34375 137.269531 Z M 306.539062 109.632812 C 298.464844 112.011719 290.3125 113.804688 282.011719 115.191406 C 281.230469 107.820312 280.003906 100.488281 278.605469 93.210938 C 286.738281 91.613281 294.601562 89.390625 302.472656 86.804688 C 304.175781 94.371094 305.546875 101.941406 306.539062 109.632812 Z M 327.097656 309.257812 C 319.574219 308.664062 312.042969 307.546875 304.617188 306.167969 C 305.527344 299.625 306.324219 293.054688 307.410156 286.535156 C 315.121094 287.722656 322.824219 286.445312 330.601562 286.292969 C 329.371094 293.9375 328.210938 301.59375 327.097656 309.257812 Z M 330.804688 285.019531 C 323.308594 285.136719 314.808594 287.484375 307.5625 285.453125 C 308.917969 275.636719 310.605469 265.878906 312.3125 256.117188 C 320.246094 256.910156 328.21875 256.585938 336.167969 256.59375 C 334.152344 266.019531 332.335938 275.503906 330.804688 285.019531 Z M 336.5 255.105469 C 328.535156 255.097656 320.558594 255.28125 312.609375 254.605469 C 314.433594 245.164062 316.472656 235.746094 317.816406 226.222656 C 325.910156 226.890625 334.148438 227.503906 342.269531 227.074219 C 340.699219 236.464844 338.550781 245.808594 336.5 255.105469 Z M 342.246094 225.683594 C 334.347656 226.625 325.890625 225.601562 318.007812 224.839844 C 319.324219 215.503906 316.992188 205.449219 314.707031 196.433594 C 322.34375 196.816406 329.976562 197.152344 337.605469 196.449219 C 340.988281 207.363281 342.054688 214.371094 342.246094 225.683594 Z M 337.121094 194.882812 C 329.488281 195.46875 321.894531 195.304688 314.257812 194.921875 C 311.691406 185.476562 308.910156 176.109375 307.117188 166.480469 C 313.488281 166.023438 319.816406 164.925781 326.191406 164.394531 C 329.132812 174.75 333.710938 184.664062 337.125 194.882812 Z M 325.773438 162.941406 C 319.445312 163.46875 313.191406 164.550781 306.871094 165.085938 C 306.050781 156.117188 306.632812 147.339844 307.441406 138.382812 C 315.621094 136.601562 323.90625 135.292969 331.925781 132.804688 C 330.324219 139.863281 324.046875 156.84375 325.777344 162.941406 Z M 332.304688 131.140625 C 324.183594 133.65625 315.855469 135.199219 307.566406 137.007812 C 308.363281 128.175781 308.421875 119.398438 307.921875 110.546875 C 317.179688 107.609375 326.246094 103.824219 334.675781 98.984375 C 335.511719 109.78125 334.105469 120.511719 332.304688 131.140625 Z M 334.5625 97.527344 C 326.042969 102.363281 317.070312 106.058594 307.828125 109.25 C 306.726562 101.542969 305.367188 94.003906 303.65625 86.414062 C 312.703125 83.167969 321.039062 78.558594 329.390625 73.878906 C 331.714844 81.613281 333.9375 89.441406 334.5625 97.527344 Z M 350.609375 311.773438 C 343.238281 310.445312 335.683594 310.082031 328.234375 309.367188 C 329.355469 301.660156 330.519531 293.964844 331.757812 286.28125 C 339.347656 286.199219 346.832031 286.523438 354.402344 286.9375 C 353.054688 295.199219 351.808594 303.484375 350.609375 311.773438 Z M 354.636719 285.554688 C 347.0625 285.144531 339.550781 284.925781 331.964844 285.007812 C 333.496094 275.5 335.28125 266.003906 337.347656 256.597656 C 344.832031 256.734375 352.3125 256.851562 359.792969 257.03125 C 358.042969 266.535156 356.261719 276.027344 354.636719 285.554688 Z M 360.03125 255.65625 C 352.574219 255.476562 345.121094 255.257812 337.660156 255.121094 C 339.417969 246.777344 343.167969 235.238281 343.066406 226.980469 C 349.765625 226.4375 356.527344 226.777344 363.246094 226.5 C 363.136719 236.351562 361.738281 245.96875 360.035156 255.652344 Z M 363.261719 225.035156 C 356.558594 225.3125 349.8125 225.058594 343.125 225.597656 C 343.566406 215.261719 341.679688 206.207031 338.628906 196.359375 C 345.453125 195.757812 352.753906 194.691406 359.585938 195.300781 C 360.585938 205.640625 363.375 214.175781 363.261719 225.035156 Z M 359.257812 193.808594 C 352.394531 193.078125 345.019531 194.265625 338.148438 194.792969 C 334.863281 184.53125 330.542969 174.644531 327.597656 164.28125 C 336.09375 163.570312 344.589844 162.96875 353.054688 161.914062 C 353.53125 172.734375 356.84375 183.320312 359.257812 193.8125 Z M 353.074219 160.597656 C 344.539062 161.660156 335.785156 162.105469 327.1875 162.824219 C 325.46875 156.777344 331.648438 139.386719 333.234375 132.402344 C 341.738281 129.765625 350.09375 126.6875 358.570312 123.960938 C 356.609375 136.203125 353.878906 148.175781 353.078125 160.59375 Z M 358.6875 122.496094 C 350.328125 125.179688 342 128.113281 333.605469 130.734375 C 335.425781 119.96875 336.957031 109.101562 336.109375 98.15625 C 345.367188 92.8125 353.949219 86.164062 363.371094 81.144531 C 364.257812 95.128906 360.46875 108.761719 358.6875 122.496094 Z M 363.136719 79.75 C 353.492188 83.980469 345.117188 91.4375 335.996094 96.703125 C 335.375 88.644531 333.054688 80.960938 330.625 73.300781 C 339.015625 69.242188 347.089844 64.5 355.636719 60.761719 C 358.128906 66.820312 362.34375 73.207031 363.132812 79.75 Z M 363.136719 79.75 " fill-opacity="1" fill-rule="nonzero"/></g></svg>