<svg xmlns="http://www.w3.org/2000/svg" xmlns:xlink="http://www.w3.org/1999/xlink" width="500" zoomAndPan="magnify" viewBox="0 0 375 374.999991" height="500" preserveAspectRatio="xMidYMid meet" version="1.0"><defs><filter x="0%" y="0%" width="100%" height="100%" id="ad09e2ed3c"><feColorMatrix values="0 0 0 0 1 0 0 0 0 1 0 0 0 0 1 0 0 0 1 0" color-interpolation-filters="sRGB"/></filter><mask id="d2cbaf456e"><g filter="url(#ad09e2ed3c)"><rect x="-37.5" width="450" fill="#000000" y="-37.499999" height="449.999989" fill-opacity="0.54"/></g></mask><clipPath id="51912cbf9f"><path d="M 80 0.980469 L 112 0.980469 L 112 32 L 80 32 Z M 80 0.980469 " clip-rule="nonzero"/></clipPath><clipPath id="029c4439b7"><path d="M 233 342 L 264 342 L 264 372 L 233 372 Z M 233 342 " clip-rule="nonzero"/></clipPath><clipPath id="1fb94075c0"><rect x="0" width="345" y="0" height="372"/></clipPath></defs><g mask="url(#d2cbaf456e)"><g transform="matrix(1, 0, 0, 1, 17, 3)"><g clip-path="url(#1fb94075c0)"><path fill="#7789a4" d="M 309.011719 34.847656 C 315.144531 40.984375 318.945312 49.441406 318.945312 58.734375 C 318.945312 68.03125 315.144531 76.492188 309.011719 82.625 C 302.878906 88.761719 294.433594 92.574219 285.148438 92.574219 L 59.574219 92.574219 C 45.441406 92.574219 32.59375 98.351562 23.289062 107.667969 C 22.535156 108.425781 21.808594 109.199219 21.097656 110 C 13.089844 119.074219 8.207031 130.988281 8.207031 143.992188 C 8.207031 157 13.089844 168.910156 21.097656 177.988281 C 21.808594 178.789062 22.535156 179.5625 23.289062 180.320312 C 32.59375 189.632812 45.441406 195.414062 59.574219 195.414062 L 285.148438 195.414062 C 294.433594 195.414062 302.878906 199.226562 309.011719 205.359375 C 315.144531 211.496094 318.945312 219.953125 318.945312 229.253906 C 318.945312 238.546875 315.144531 247.003906 309.011719 253.140625 C 302.878906 259.273438 294.433594 263.085938 285.148438 263.085938 L 59.574219 263.085938 C 45.441406 263.085938 32.59375 268.871094 23.289062 278.1875 C 22.535156 278.9375 21.808594 279.71875 21.097656 280.515625 C 13.089844 289.589844 8.207031 301.503906 8.207031 314.511719 C 8.207031 328.664062 13.980469 341.515625 23.289062 350.832031 C 32.59375 360.152344 45.441406 365.933594 59.574219 365.933594 L 78.300781 365.933594 L 78.300781 348.34375 L 59.574219 348.34375 C 50.289062 348.34375 41.839844 344.539062 35.710938 338.398438 C 29.582031 332.261719 25.777344 323.804688 25.777344 314.511719 C 25.777344 305.214844 29.582031 296.753906 35.710938 290.621094 C 41.839844 284.484375 50.289062 280.671875 59.574219 280.671875 L 285.148438 280.671875 C 299.285156 280.671875 312.128906 274.894531 321.433594 265.578125 C 322.183594 264.820312 322.914062 264.046875 323.621094 263.242188 C 331.640625 254.167969 336.519531 242.253906 336.519531 229.253906 C 336.519531 216.246094 331.640625 204.335938 323.621094 195.257812 C 322.914062 194.457031 322.183594 193.683594 321.433594 192.925781 C 312.128906 183.613281 299.285156 177.828125 285.148438 177.828125 L 59.574219 177.828125 C 50.289062 177.828125 41.839844 174.019531 35.710938 167.878906 C 29.582031 161.746094 25.777344 153.285156 25.777344 143.992188 C 25.777344 134.695312 29.582031 126.242188 35.710938 120.101562 C 41.839844 113.96875 50.289062 110.160156 59.574219 110.160156 L 285.148438 110.160156 C 299.285156 110.160156 312.128906 104.375 321.433594 95.058594 C 322.183594 94.304688 322.914062 93.527344 323.621094 92.730469 C 331.640625 83.652344 336.519531 71.742188 336.519531 58.734375 C 336.519531 44.582031 330.742188 31.726562 321.433594 22.410156 C 312.128906 13.09375 299.285156 7.308594 285.148438 7.308594 L 266.421875 7.308594 L 266.421875 24.902344 L 285.148438 24.902344 C 294.433594 24.902344 302.878906 28.707031 309.011719 34.847656 Z M 309.011719 34.847656 " fill-opacity="1" fill-rule="evenodd"/><path fill="#7789a4" d="M 96.015625 7.308594 L 272.097656 7.308594 L 272.097656 24.898438 L 96.015625 24.898438 Z M 96.015625 7.308594 " fill-opacity="1" fill-rule="evenodd"/><g clip-path="url(#51912cbf9f)"><path fill="#7789a4" d="M 111.125 16.109375 C 111.125 17.101562 111.03125 18.085938 110.835938 19.058594 C 110.644531 20.035156 110.355469 20.980469 109.976562 21.898438 C 109.597656 22.816406 109.132812 23.6875 108.578125 24.515625 C 108.027344 25.339844 107.402344 26.105469 106.699219 26.804688 C 106 27.507812 105.234375 28.136719 104.410156 28.6875 C 103.585938 29.238281 102.714844 29.707031 101.796875 30.085938 C 100.882812 30.464844 99.9375 30.753906 98.964844 30.945312 C 97.988281 31.140625 97.007812 31.238281 96.015625 31.238281 C 95.023438 31.238281 94.039062 31.140625 93.066406 30.945312 C 92.09375 30.753906 91.148438 30.464844 90.230469 30.085938 C 89.316406 29.707031 88.445312 29.238281 87.621094 28.6875 C 86.792969 28.136719 86.03125 27.507812 85.328125 26.804688 C 84.628906 26.105469 84 25.339844 83.449219 24.515625 C 82.898438 23.6875 82.433594 22.816406 82.054688 21.898438 C 81.675781 20.980469 81.386719 20.035156 81.195312 19.058594 C 81 18.085938 80.902344 17.101562 80.902344 16.109375 C 80.902344 15.117188 81 14.132812 81.195312 13.15625 C 81.386719 12.183594 81.675781 11.238281 82.054688 10.320312 C 82.433594 9.402344 82.898438 8.53125 83.449219 7.703125 C 84 6.878906 84.628906 6.113281 85.328125 5.410156 C 86.03125 4.710938 86.792969 4.082031 87.621094 3.53125 C 88.445312 2.980469 89.316406 2.511719 90.230469 2.132812 C 91.148438 1.753906 92.09375 1.464844 93.066406 1.273438 C 94.039062 1.078125 95.023438 0.980469 96.015625 0.980469 C 97.007812 0.980469 97.988281 1.078125 98.964844 1.273438 C 99.9375 1.464844 100.882812 1.753906 101.796875 2.132812 C 102.714844 2.511719 103.585938 2.980469 104.410156 3.53125 C 105.234375 4.082031 106 4.710938 106.699219 5.410156 C 107.402344 6.113281 108.027344 6.878906 108.578125 7.703125 C 109.132812 8.53125 109.597656 9.402344 109.976562 10.320312 C 110.355469 11.238281 110.644531 12.183594 110.835938 13.15625 C 111.03125 14.132812 111.125 15.117188 111.125 16.109375 Z M 111.125 16.109375 " fill-opacity="1" fill-rule="nonzero"/></g><path fill="#e6e6e6" d="M 106.472656 16.109375 C 106.472656 16.796875 106.402344 17.476562 106.269531 18.152344 C 106.136719 18.824219 105.9375 19.480469 105.675781 20.113281 C 105.414062 20.75 105.089844 21.351562 104.707031 21.925781 C 104.328125 22.496094 103.894531 23.023438 103.410156 23.511719 C 102.921875 23.996094 102.394531 24.429688 101.824219 24.8125 C 101.253906 25.195312 100.652344 25.515625 100.015625 25.777344 C 99.382812 26.042969 98.726562 26.242188 98.054688 26.375 C 97.382812 26.507812 96.703125 26.574219 96.015625 26.574219 C 95.328125 26.574219 94.648438 26.507812 93.976562 26.375 C 93.300781 26.242188 92.648438 26.042969 92.015625 25.777344 C 91.378906 25.515625 90.777344 25.195312 90.207031 24.8125 C 89.636719 24.429688 89.105469 23.996094 88.621094 23.511719 C 88.136719 23.023438 87.703125 22.496094 87.320312 21.925781 C 86.941406 21.351562 86.617188 20.75 86.355469 20.113281 C 86.09375 19.480469 85.894531 18.824219 85.761719 18.152344 C 85.625 17.476562 85.558594 16.796875 85.558594 16.109375 C 85.558594 15.421875 85.625 14.742188 85.761719 14.066406 C 85.894531 13.394531 86.09375 12.738281 86.355469 12.105469 C 86.617188 11.46875 86.941406 10.867188 87.320312 10.292969 C 87.703125 9.722656 88.136719 9.195312 88.621094 8.707031 C 89.105469 8.222656 89.636719 7.789062 90.207031 7.40625 C 90.777344 7.023438 91.378906 6.703125 92.015625 6.4375 C 92.648438 6.175781 93.300781 5.976562 93.976562 5.84375 C 94.648438 5.710938 95.328125 5.640625 96.015625 5.640625 C 96.703125 5.640625 97.382812 5.710938 98.054688 5.84375 C 98.726562 5.976562 99.382812 6.175781 100.015625 6.4375 C 100.652344 6.703125 101.253906 7.023438 101.824219 7.40625 C 102.394531 7.789062 102.921875 8.222656 103.410156 8.707031 C 103.894531 9.195312 104.328125 9.722656 104.707031 10.292969 C 105.089844 10.867188 105.414062 11.46875 105.675781 12.105469 C 105.9375 12.738281 106.136719 13.394531 106.269531 14.066406 C 106.402344 14.742188 106.472656 15.421875 106.472656 16.109375 Z M 106.472656 16.109375 " fill-opacity="1" fill-rule="nonzero"/><path fill="#7789a4" d="M 342.488281 59.191406 C 342.488281 60.1875 342.390625 61.167969 342.195312 62.144531 C 342.003906 63.117188 341.714844 64.0625 341.335938 64.980469 C 340.957031 65.898438 340.492188 66.769531 339.941406 67.597656 C 339.386719 68.421875 338.761719 69.1875 338.0625 69.890625 C 337.359375 70.59375 336.59375 71.21875 335.769531 71.769531 C 334.945312 72.324219 334.074219 72.789062 333.15625 73.167969 C 332.242188 73.550781 331.296875 73.835938 330.324219 74.03125 C 329.351562 74.222656 328.367188 74.320312 327.375 74.320312 C 326.382812 74.320312 325.398438 74.222656 324.425781 74.03125 C 323.453125 73.835938 322.507812 73.550781 321.59375 73.167969 C 320.675781 72.789062 319.804688 72.324219 318.980469 71.769531 C 318.152344 71.21875 317.390625 70.59375 316.6875 69.890625 C 315.988281 69.1875 315.359375 68.421875 314.808594 67.597656 C 314.257812 66.769531 313.792969 65.898438 313.414062 64.980469 C 313.035156 64.0625 312.746094 63.117188 312.554688 62.144531 C 312.359375 61.167969 312.261719 60.1875 312.261719 59.191406 C 312.261719 58.199219 312.359375 57.214844 312.554688 56.242188 C 312.746094 55.265625 313.035156 54.320312 313.414062 53.402344 C 313.792969 52.484375 314.257812 51.613281 314.808594 50.789062 C 315.359375 49.960938 315.988281 49.199219 316.6875 48.496094 C 317.390625 47.792969 318.152344 47.164062 318.980469 46.613281 C 319.804688 46.0625 320.675781 45.597656 321.59375 45.214844 C 322.507812 44.835938 323.453125 44.550781 324.425781 44.355469 C 325.398438 44.160156 326.382812 44.066406 327.375 44.066406 C 328.367188 44.066406 329.351562 44.160156 330.324219 44.355469 C 331.296875 44.550781 332.242188 44.835938 333.15625 45.214844 C 334.074219 45.597656 334.945312 46.0625 335.769531 46.613281 C 336.59375 47.164062 337.359375 47.792969 338.0625 48.496094 C 338.761719 49.199219 339.386719 49.960938 339.941406 50.789062 C 340.492188 51.613281 340.957031 52.484375 341.335938 53.402344 C 341.714844 54.320312 342.003906 55.265625 342.195312 56.242188 C 342.390625 57.214844 342.488281 58.199219 342.488281 59.191406 Z M 342.488281 59.191406 " fill-opacity="1" fill-rule="nonzero"/><path fill="#e6e6e6" d="M 337.832031 59.191406 C 337.832031 59.878906 337.765625 60.558594 337.628906 61.234375 C 337.496094 61.910156 337.296875 62.5625 337.035156 63.199219 C 336.773438 63.832031 336.449219 64.4375 336.070312 65.007812 C 335.6875 65.578125 335.253906 66.109375 334.769531 66.59375 C 334.28125 67.078125 333.753906 67.515625 333.183594 67.894531 C 332.613281 68.277344 332.011719 68.601562 331.375 68.863281 C 330.742188 69.125 330.089844 69.324219 329.414062 69.457031 C 328.742188 69.59375 328.0625 69.660156 327.375 69.660156 C 326.6875 69.660156 326.007812 69.59375 325.335938 69.457031 C 324.660156 69.324219 324.007812 69.125 323.375 68.863281 C 322.738281 68.601562 322.136719 68.277344 321.566406 67.894531 C 320.996094 67.515625 320.46875 67.078125 319.980469 66.59375 C 319.496094 66.109375 319.0625 65.578125 318.679688 65.007812 C 318.300781 64.4375 317.976562 63.832031 317.714844 63.199219 C 317.453125 62.5625 317.253906 61.910156 317.121094 61.234375 C 316.984375 60.558594 316.917969 59.878906 316.917969 59.191406 C 316.917969 58.503906 316.984375 57.824219 317.121094 57.152344 C 317.253906 56.476562 317.453125 55.820312 317.714844 55.1875 C 317.976562 54.550781 318.300781 53.949219 318.679688 53.378906 C 319.0625 52.804688 319.496094 52.277344 319.980469 51.792969 C 320.46875 51.304688 320.996094 50.871094 321.566406 50.488281 C 322.136719 50.109375 322.738281 49.785156 323.375 49.523438 C 324.007812 49.257812 324.660156 49.0625 325.335938 48.925781 C 326.007812 48.792969 326.6875 48.726562 327.375 48.726562 C 328.0625 48.726562 328.742188 48.792969 329.414062 48.925781 C 330.089844 49.0625 330.742188 49.257812 331.375 49.523438 C 332.011719 49.785156 332.613281 50.109375 333.183594 50.488281 C 333.753906 50.871094 334.28125 51.304688 334.769531 51.792969 C 335.253906 52.277344 335.6875 52.804688 336.070312 53.378906 C 336.449219 53.949219 336.773438 54.550781 337.035156 55.1875 C 337.296875 55.820312 337.496094 56.476562 337.628906 57.152344 C 337.765625 57.824219 337.832031 58.503906 337.832031 59.191406 Z M 337.832031 59.191406 " fill-opacity="1" fill-rule="nonzero"/><path fill="#7789a4" d="M 32.3125 143.566406 C 32.3125 144.558594 32.214844 145.542969 32.019531 146.515625 C 31.828125 147.492188 31.539062 148.4375 31.160156 149.355469 C 30.78125 150.273438 30.316406 151.144531 29.765625 151.972656 C 29.214844 152.796875 28.585938 153.5625 27.886719 154.261719 C 27.183594 154.964844 26.421875 155.59375 25.59375 156.144531 C 24.769531 156.695312 23.898438 157.164062 22.984375 157.542969 C 22.066406 157.921875 21.121094 158.210938 20.148438 158.402344 C 19.175781 158.597656 18.191406 158.695312 17.199219 158.695312 C 16.207031 158.695312 15.226562 158.597656 14.25 158.402344 C 13.277344 158.210938 12.332031 157.921875 11.417969 157.542969 C 10.5 157.164062 9.628906 156.695312 8.804688 156.144531 C 7.980469 155.59375 7.214844 154.964844 6.515625 154.261719 C 5.8125 153.5625 5.1875 152.796875 4.632812 151.972656 C 4.082031 151.144531 3.617188 150.273438 3.238281 149.355469 C 2.859375 148.4375 2.570312 147.492188 2.378906 146.515625 C 2.183594 145.542969 2.089844 144.558594 2.089844 143.566406 C 2.089844 142.574219 2.183594 141.589844 2.378906 140.613281 C 2.570312 139.640625 2.859375 138.695312 3.238281 137.777344 C 3.617188 136.859375 4.082031 135.988281 4.632812 135.160156 C 5.1875 134.335938 5.8125 133.570312 6.515625 132.867188 C 7.214844 132.167969 7.980469 131.539062 8.804688 130.988281 C 9.628906 130.4375 10.5 129.96875 11.417969 129.589844 C 12.332031 129.210938 13.277344 128.921875 14.25 128.730469 C 15.226562 128.535156 16.207031 128.4375 17.199219 128.4375 C 18.191406 128.4375 19.175781 128.535156 20.148438 128.730469 C 21.121094 128.921875 22.066406 129.210938 22.984375 129.589844 C 23.898438 129.96875 24.769531 130.4375 25.59375 130.988281 C 26.421875 131.539062 27.183594 132.167969 27.886719 132.867188 C 28.585938 133.570312 29.214844 134.335938 29.765625 135.160156 C 30.316406 135.988281 30.78125 136.859375 31.160156 137.777344 C 31.539062 138.695312 31.828125 139.640625 32.019531 140.613281 C 32.214844 141.589844 32.3125 142.574219 32.3125 143.566406 Z M 32.3125 143.566406 " fill-opacity="1" fill-rule="nonzero"/><path fill="#e6e6e6" d="M 27.65625 143.566406 C 27.65625 144.253906 27.589844 144.933594 27.453125 145.609375 C 27.320312 146.28125 27.121094 146.9375 26.859375 147.570312 C 26.597656 148.207031 26.273438 148.808594 25.894531 149.382812 C 25.511719 149.953125 25.078125 150.480469 24.59375 150.96875 C 24.109375 151.453125 23.578125 151.886719 23.007812 152.269531 C 22.4375 152.652344 21.835938 152.972656 21.199219 153.234375 C 20.566406 153.5 19.914062 153.699219 19.238281 153.832031 C 18.566406 153.964844 17.886719 154.03125 17.199219 154.03125 C 16.511719 154.03125 15.832031 153.964844 15.160156 153.832031 C 14.488281 153.699219 13.832031 153.5 13.199219 153.234375 C 12.5625 152.972656 11.960938 152.652344 11.390625 152.269531 C 10.820312 151.886719 10.292969 151.453125 9.804688 150.96875 C 9.320312 150.480469 8.886719 149.953125 8.507812 149.382812 C 8.125 148.808594 7.800781 148.207031 7.539062 147.570312 C 7.277344 146.9375 7.078125 146.28125 6.945312 145.609375 C 6.8125 144.933594 6.742188 144.253906 6.742188 143.566406 C 6.742188 142.878906 6.8125 142.199219 6.945312 141.523438 C 7.078125 140.851562 7.277344 140.195312 7.539062 139.5625 C 7.800781 138.925781 8.125 138.324219 8.507812 137.75 C 8.886719 137.179688 9.320312 136.652344 9.804688 136.164062 C 10.292969 135.679688 10.820312 135.246094 11.390625 134.863281 C 11.960938 134.480469 12.5625 134.160156 13.199219 133.894531 C 13.832031 133.632812 14.488281 133.433594 15.160156 133.300781 C 15.832031 133.167969 16.511719 133.097656 17.199219 133.097656 C 17.886719 133.097656 18.566406 133.167969 19.238281 133.300781 C 19.914062 133.433594 20.566406 133.632812 21.199219 133.894531 C 21.835938 134.160156 22.4375 134.480469 23.007812 134.863281 C 23.578125 135.246094 24.109375 135.679688 24.59375 136.164062 C 25.078125 136.652344 25.511719 137.179688 25.894531 137.75 C 26.273438 138.324219 26.597656 138.925781 26.859375 139.5625 C 27.121094 140.195312 27.320312 140.851562 27.453125 141.523438 C 27.589844 142.199219 27.65625 142.878906 27.65625 143.566406 Z M 27.65625 143.566406 " fill-opacity="1" fill-rule="nonzero"/><path fill="#7789a4" d="M 341.867188 230.285156 C 341.867188 231.277344 341.769531 232.261719 341.574219 233.234375 C 341.382812 234.210938 341.09375 235.15625 340.714844 236.074219 C 340.335938 236.992188 339.871094 237.863281 339.320312 238.6875 C 338.769531 239.515625 338.140625 240.277344 337.441406 240.980469 C 336.738281 241.683594 335.976562 242.308594 335.148438 242.863281 C 334.324219 243.414062 333.453125 243.878906 332.539062 244.261719 C 331.621094 244.640625 330.675781 244.925781 329.703125 245.121094 C 328.730469 245.316406 327.746094 245.410156 326.753906 245.410156 C 325.761719 245.410156 324.777344 245.316406 323.804688 245.121094 C 322.832031 244.925781 321.886719 244.640625 320.972656 244.261719 C 320.054688 243.878906 319.183594 243.414062 318.359375 242.863281 C 317.535156 242.308594 316.769531 241.683594 316.070312 240.980469 C 315.367188 240.277344 314.742188 239.515625 314.1875 238.6875 C 313.636719 237.863281 313.171875 236.992188 312.792969 236.074219 C 312.414062 235.15625 312.125 234.210938 311.933594 233.234375 C 311.738281 232.261719 311.640625 231.277344 311.640625 230.285156 C 311.640625 229.289062 311.738281 228.304688 311.933594 227.332031 C 312.125 226.359375 312.414062 225.414062 312.792969 224.496094 C 313.171875 223.578125 313.636719 222.703125 314.1875 221.878906 C 314.742188 221.054688 315.367188 220.289062 316.070312 219.585938 C 316.769531 218.882812 317.535156 218.257812 318.359375 217.707031 C 319.183594 217.152344 320.054688 216.6875 320.972656 216.308594 C 321.886719 215.925781 322.832031 215.640625 323.804688 215.445312 C 324.777344 215.253906 325.761719 215.15625 326.753906 215.15625 C 327.746094 215.15625 328.730469 215.253906 329.703125 215.445312 C 330.675781 215.640625 331.621094 215.925781 332.539062 216.308594 C 333.453125 216.6875 334.324219 217.152344 335.148438 217.707031 C 335.976562 218.257812 336.738281 218.882812 337.441406 219.585938 C 338.140625 220.289062 338.769531 221.054688 339.320312 221.878906 C 339.871094 222.703125 340.335938 223.578125 340.714844 224.496094 C 341.09375 225.414062 341.382812 226.359375 341.574219 227.332031 C 341.769531 228.304688 341.867188 229.289062 341.867188 230.285156 Z M 341.867188 230.285156 " fill-opacity="1" fill-rule="nonzero"/><path fill="#e6e6e6" d="M 337.210938 230.285156 C 337.210938 230.972656 337.144531 231.652344 337.007812 232.324219 C 336.875 233 336.675781 233.65625 336.414062 234.289062 C 336.152344 234.925781 335.828125 235.527344 335.449219 236.097656 C 335.066406 236.671875 334.632812 237.199219 334.148438 237.683594 C 333.660156 238.171875 333.132812 238.605469 332.5625 238.988281 C 331.992188 239.367188 331.390625 239.691406 330.753906 239.953125 C 330.121094 240.21875 329.46875 240.414062 328.792969 240.550781 C 328.121094 240.683594 327.441406 240.75 326.753906 240.75 C 326.066406 240.75 325.386719 240.683594 324.714844 240.550781 C 324.039062 240.414062 323.386719 240.21875 322.753906 239.953125 C 322.117188 239.691406 321.515625 239.367188 320.945312 238.988281 C 320.375 238.605469 319.847656 238.171875 319.359375 237.683594 C 318.875 237.199219 318.441406 236.671875 318.0625 236.097656 C 317.679688 235.527344 317.355469 234.925781 317.09375 234.289062 C 316.832031 233.65625 316.632812 233 316.5 232.324219 C 316.367188 231.652344 316.296875 230.972656 316.296875 230.285156 C 316.296875 229.597656 316.367188 228.914062 316.5 228.242188 C 316.632812 227.566406 316.832031 226.914062 317.09375 226.277344 C 317.355469 225.644531 317.679688 225.039062 318.058594 224.46875 C 318.441406 223.898438 318.875 223.367188 319.359375 222.882812 C 319.847656 222.398438 320.375 221.960938 320.945312 221.582031 C 321.515625 221.199219 322.117188 220.875 322.753906 220.613281 C 323.386719 220.351562 324.039062 220.152344 324.714844 220.019531 C 325.386719 219.882812 326.066406 219.816406 326.753906 219.816406 C 327.441406 219.816406 328.121094 219.882812 328.792969 220.019531 C 329.46875 220.152344 330.121094 220.351562 330.753906 220.613281 C 331.390625 220.875 331.992188 221.199219 332.5625 221.582031 C 333.132812 221.960938 333.660156 222.398438 334.148438 222.882812 C 334.632812 223.367188 335.066406 223.898438 335.449219 224.46875 C 335.828125 225.039062 336.152344 225.644531 336.414062 226.277344 C 336.675781 226.914062 336.875 227.566406 337.007812 228.242188 C 337.144531 228.914062 337.210938 229.597656 337.210938 230.285156 Z M 337.210938 230.285156 " fill-opacity="1" fill-rule="nonzero"/><path fill="#7789a4" d="M 32.3125 314.511719 C 32.3125 315.503906 32.214844 316.488281 32.019531 317.460938 C 31.828125 318.4375 31.539062 319.382812 31.160156 320.300781 C 30.78125 321.21875 30.316406 322.089844 29.765625 322.914062 C 29.214844 323.742188 28.585938 324.503906 27.886719 325.207031 C 27.183594 325.910156 26.421875 326.535156 25.59375 327.089844 C 24.769531 327.640625 23.898438 328.105469 22.984375 328.488281 C 22.066406 328.867188 21.121094 329.152344 20.148438 329.347656 C 19.175781 329.542969 18.191406 329.636719 17.199219 329.636719 C 16.207031 329.636719 15.226562 329.542969 14.25 329.347656 C 13.277344 329.152344 12.332031 328.867188 11.417969 328.488281 C 10.5 328.105469 9.628906 327.640625 8.804688 327.089844 C 7.980469 326.535156 7.214844 325.910156 6.515625 325.207031 C 5.8125 324.503906 5.1875 323.742188 4.632812 322.914062 C 4.082031 322.089844 3.617188 321.21875 3.238281 320.300781 C 2.859375 319.382812 2.570312 318.4375 2.378906 317.460938 C 2.183594 316.488281 2.089844 315.503906 2.089844 314.511719 C 2.089844 313.515625 2.183594 312.53125 2.378906 311.558594 C 2.570312 310.585938 2.859375 309.636719 3.238281 308.722656 C 3.617188 307.804688 4.082031 306.929688 4.632812 306.105469 C 5.1875 305.28125 5.8125 304.515625 6.515625 303.8125 C 7.214844 303.109375 7.980469 302.484375 8.804688 301.929688 C 9.628906 301.378906 10.5 300.914062 11.417969 300.535156 C 12.332031 300.152344 13.277344 299.867188 14.25 299.671875 C 15.226562 299.480469 16.207031 299.382812 17.199219 299.382812 C 18.191406 299.382812 19.175781 299.480469 20.148438 299.671875 C 21.121094 299.867188 22.066406 300.152344 22.984375 300.535156 C 23.898438 300.914062 24.769531 301.378906 25.59375 301.929688 C 26.421875 302.484375 27.183594 303.109375 27.886719 303.8125 C 28.585938 304.515625 29.214844 305.28125 29.765625 306.105469 C 30.316406 306.929688 30.78125 307.804688 31.160156 308.722656 C 31.539062 309.636719 31.828125 310.585938 32.019531 311.558594 C 32.214844 312.53125 32.3125 313.515625 32.3125 314.511719 Z M 32.3125 314.511719 " fill-opacity="1" fill-rule="nonzero"/><path fill="#e6e6e6" d="M 27.65625 314.511719 C 27.65625 315.199219 27.589844 315.878906 27.453125 316.550781 C 27.320312 317.226562 27.121094 317.878906 26.859375 318.515625 C 26.597656 319.152344 26.273438 319.753906 25.894531 320.324219 C 25.511719 320.898438 25.078125 321.425781 24.59375 321.910156 C 24.109375 322.398438 23.578125 322.832031 23.007812 323.214844 C 22.4375 323.59375 21.835938 323.917969 21.199219 324.179688 C 20.566406 324.441406 19.914062 324.640625 19.238281 324.777344 C 18.566406 324.910156 17.886719 324.976562 17.199219 324.976562 C 16.511719 324.976562 15.832031 324.910156 15.160156 324.777344 C 14.488281 324.640625 13.832031 324.441406 13.199219 324.179688 C 12.5625 323.917969 11.960938 323.59375 11.390625 323.214844 C 10.820312 322.832031 10.292969 322.398438 9.804688 321.910156 C 9.320312 321.425781 8.886719 320.898438 8.507812 320.324219 C 8.125 319.753906 7.800781 319.152344 7.539062 318.515625 C 7.277344 317.878906 7.078125 317.226562 6.945312 316.550781 C 6.8125 315.878906 6.742188 315.199219 6.742188 314.511719 C 6.742188 313.824219 6.8125 313.140625 6.945312 312.46875 C 7.078125 311.792969 7.277344 311.140625 7.539062 310.503906 C 7.800781 309.871094 8.125 309.265625 8.507812 308.695312 C 8.886719 308.125 9.320312 307.59375 9.804688 307.109375 C 10.292969 306.621094 10.820312 306.1875 11.390625 305.808594 C 11.960938 305.425781 12.5625 305.101562 13.199219 304.839844 C 13.832031 304.578125 14.488281 304.378906 15.160156 304.246094 C 15.832031 304.109375 16.511719 304.042969 17.199219 304.042969 C 17.886719 304.042969 18.566406 304.109375 19.238281 304.246094 C 19.914062 304.378906 20.566406 304.578125 21.199219 304.839844 C 21.835938 305.101562 22.4375 305.425781 23.007812 305.808594 C 23.578125 306.1875 24.109375 306.621094 24.59375 307.109375 C 25.078125 307.59375 25.511719 308.125 25.894531 308.695312 C 26.273438 309.265625 26.597656 309.871094 26.859375 310.503906 C 27.121094 311.140625 27.320312 311.792969 27.453125 312.46875 C 27.589844 313.140625 27.65625 313.824219 27.65625 314.511719 Z M 27.65625 314.511719 " fill-opacity="1" fill-rule="nonzero"/><path fill="#7789a4" d="M 72.632812 348.34375 L 248.710938 348.34375 L 248.710938 365.929688 L 72.632812 365.929688 Z M 72.632812 348.34375 " fill-opacity="1" fill-rule="evenodd"/><g clip-path="url(#029c4439b7)"><path fill="#7789a4" d="M 263.824219 357.136719 C 263.824219 358.128906 263.726562 359.113281 263.535156 360.085938 C 263.339844 361.0625 263.054688 362.007812 262.671875 362.925781 C 262.292969 363.84375 261.828125 364.714844 261.277344 365.539062 C 260.726562 366.367188 260.097656 367.128906 259.398438 367.832031 C 258.695312 368.535156 257.933594 369.164062 257.109375 369.714844 C 256.28125 370.265625 255.410156 370.730469 254.496094 371.113281 C 253.578125 371.492188 252.632812 371.777344 251.660156 371.972656 C 250.6875 372.167969 249.703125 372.265625 248.710938 372.265625 C 247.71875 372.265625 246.738281 372.167969 245.765625 371.972656 C 244.789062 371.777344 243.847656 371.492188 242.929688 371.113281 C 242.011719 370.730469 241.140625 370.265625 240.316406 369.714844 C 239.492188 369.164062 238.726562 368.535156 238.027344 367.832031 C 237.324219 367.128906 236.699219 366.367188 236.148438 365.539062 C 235.597656 364.714844 235.128906 363.84375 234.75 362.925781 C 234.371094 362.007812 234.085938 361.0625 233.890625 360.085938 C 233.695312 359.113281 233.601562 358.128906 233.601562 357.136719 C 233.601562 356.140625 233.695312 355.160156 233.890625 354.183594 C 234.085938 353.210938 234.371094 352.265625 234.75 351.347656 C 235.128906 350.429688 235.597656 349.558594 236.148438 348.730469 C 236.699219 347.90625 237.324219 347.140625 238.027344 346.4375 C 238.726562 345.734375 239.492188 345.109375 240.316406 344.558594 C 241.140625 344.003906 242.011719 343.539062 242.929688 343.160156 C 243.847656 342.777344 244.789062 342.492188 245.765625 342.296875 C 246.738281 342.105469 247.71875 342.007812 248.710938 342.007812 C 249.703125 342.007812 250.6875 342.105469 251.660156 342.296875 C 252.632812 342.492188 253.578125 342.777344 254.496094 343.160156 C 255.410156 343.539062 256.28125 344.003906 257.109375 344.558594 C 257.933594 345.109375 258.695312 345.734375 259.398438 346.4375 C 260.097656 347.140625 260.726562 347.90625 261.277344 348.730469 C 261.828125 349.558594 262.292969 350.429688 262.671875 351.347656 C 263.054688 352.265625 263.339844 353.210938 263.535156 354.183594 C 263.726562 355.160156 263.824219 356.140625 263.824219 357.136719 Z M 263.824219 357.136719 " fill-opacity="1" fill-rule="nonzero"/></g><path fill="#e6e6e6" d="M 259.167969 357.136719 C 259.167969 357.824219 259.101562 358.503906 258.96875 359.175781 C 258.832031 359.851562 258.632812 360.507812 258.371094 361.140625 C 258.109375 361.777344 257.785156 362.378906 257.40625 362.949219 C 257.023438 363.523438 256.589844 364.050781 256.105469 364.535156 C 255.621094 365.023438 255.089844 365.457031 254.519531 365.839844 C 253.949219 366.21875 253.347656 366.542969 252.714844 366.804688 C 252.078125 367.070312 251.425781 367.265625 250.75 367.402344 C 250.078125 367.535156 249.398438 367.601562 248.710938 367.601562 C 248.027344 367.601562 247.34375 367.535156 246.671875 367.402344 C 246 367.265625 245.34375 367.070312 244.710938 366.804688 C 244.078125 366.542969 243.472656 366.21875 242.902344 365.839844 C 242.332031 365.457031 241.804688 365.023438 241.320312 364.535156 C 240.832031 364.050781 240.398438 363.523438 240.019531 362.949219 C 239.636719 362.378906 239.316406 361.777344 239.050781 361.140625 C 238.789062 360.507812 238.589844 359.851562 238.457031 359.175781 C 238.324219 358.503906 238.257812 357.824219 238.257812 357.136719 C 238.257812 356.449219 238.324219 355.769531 238.457031 355.09375 C 238.589844 354.417969 238.789062 353.765625 239.050781 353.128906 C 239.316406 352.496094 239.636719 351.890625 240.019531 351.320312 C 240.398438 350.75 240.832031 350.21875 241.320312 349.734375 C 241.804688 349.25 242.332031 348.816406 242.902344 348.433594 C 243.472656 348.050781 244.078125 347.726562 244.710938 347.464844 C 245.34375 347.203125 246 347.003906 246.671875 346.871094 C 247.34375 346.734375 248.027344 346.667969 248.710938 346.667969 C 249.398438 346.667969 250.078125 346.734375 250.75 346.871094 C 251.425781 347.003906 252.078125 347.203125 252.714844 347.464844 C 253.347656 347.726562 253.949219 348.050781 254.519531 348.433594 C 255.089844 348.816406 255.621094 349.25 256.105469 349.734375 C 256.589844 350.21875 257.023438 350.75 257.40625 351.320312 C 257.785156 351.890625 258.109375 352.496094 258.371094 353.128906 C 258.632812 353.765625 258.832031 354.417969 258.96875 355.09375 C 259.101562 355.769531 259.167969 356.449219 259.167969 357.136719 Z M 259.167969 357.136719 " fill-opacity="1" fill-rule="nonzero"/></g></g></g></svg>