<svg xmlns="http://www.w3.org/2000/svg" xmlns:xlink="http://www.w3.org/1999/xlink" width="500" zoomAndPan="magnify" viewBox="0 0 375 374.999991" height="500" preserveAspectRatio="xMidYMid meet" version="1.0"><defs><g/><clipPath id="61e6c7a3ca"><path d="M 75.28125 37.5 L 299 37.5 L 299 262.5 L 75.28125 262.5 Z M 75.28125 37.5 " clip-rule="nonzero"/></clipPath></defs><g clip-path="url(#61e6c7a3ca)"><path fill="#f0f0f0" d="M 232.253906 262.5 C 225.96875 262.5 220.273438 259.527344 216.621094 254.347656 L 192.667969 220.324219 L 144.03125 254.621094 L 136.835938 171.648438 L 86.667969 148.417969 C 79.609375 145.148438 75.347656 138.289062 75.546875 130.511719 C 75.742188 122.742188 80.34375 116.101562 87.558594 113.195312 L 271.917969 38.925781 C 274.246094 37.988281 276.671875 37.507812 279.128906 37.507812 C 283.726562 37.507812 288.1875 39.195312 291.691406 42.25 C 297.148438 47.015625 299.445312 54.347656 297.675781 61.394531 L 250.894531 247.964844 C 248.75 256.523438 241.085938 262.5 232.253906 262.5 Z M 232.253906 262.5 " fill-opacity="1" fill-rule="evenodd"/></g><path fill="#ffffff" d="M 289.785156 44.433594 C 286.808594 41.835938 283.023438 40.40625 279.125 40.40625 C 277.035156 40.40625 274.976562 40.8125 272.996094 41.609375 L 88.640625 115.886719 C 82.515625 118.351562 78.609375 123.984375 78.4375 130.589844 C 78.269531 137.1875 81.894531 143.015625 87.882812 145.789062 L 139.574219 169.734375 L 146.476562 249.355469 L 193.367188 216.289062 L 218.984375 252.675781 C 222.082031 257.078125 226.917969 259.597656 232.25 259.597656 C 239.75 259.597656 246.257812 254.519531 248.082031 247.253906 L 294.867188 60.691406 C 296.367188 54.710938 294.417969 48.476562 289.785156 44.433594 Z M 289.785156 44.433594 " fill-opacity="1" fill-rule="evenodd"/><path fill="#009eff" d="M 90.800781 121.261719 L 275.160156 46.980469 C 283.132812 43.769531 291.347656 50.933594 289.253906 59.28125 L 242.472656 245.851562 C 240.285156 254.582031 228.902344 256.703125 223.71875 249.339844 L 179.890625 187.082031 L 145.054688 165.886719 L 90.3125 140.535156 C 81.964844 136.667969 82.269531 124.699219 90.800781 121.261719 Z M 90.800781 121.261719 " fill-opacity="1" fill-rule="evenodd"/><path fill="#00c6ff" d="M 179.890625 187.082031 L 285.984375 48.800781 L 145.054688 165.886719 L 151.375 238.816406 Z M 179.890625 187.082031 " fill-opacity="1" fill-rule="evenodd"/><path fill="#0578d7" d="M 194.769531 208.21875 L 179.890625 187.082031 L 151.375 238.816406 Z M 194.769531 208.21875 " fill-opacity="1" fill-rule="evenodd"/><g fill="#ffffff" fill-opacity="1"><g transform="translate(81.878907, 328.74997)"><g><path d="M 14.609375 0 L 8.5625 0 L 8.5625 -23.515625 L 0.796875 -23.515625 L 0.796875 -28.5625 L 22.359375 -28.5625 L 22.359375 -23.515625 L 14.609375 -23.515625 Z M 14.609375 0 "/></g></g></g><g fill="#ffffff" fill-opacity="1"><g transform="translate(105.040706, 328.74997)"><g><path d="M 20.046875 0 L 3.59375 0 L 3.59375 -28.5625 L 20.046875 -28.5625 L 20.046875 -23.59375 L 9.65625 -23.59375 L 9.65625 -17.328125 L 19.3125 -17.328125 L 19.3125 -12.359375 L 9.65625 -12.359375 L 9.65625 -5 L 20.046875 -5 Z M 20.046875 0 "/></g></g></g><g fill="#ffffff" fill-opacity="1"><g transform="translate(127.440866, 328.74997)"><g><path d="M 3.59375 0 L 3.59375 -28.5625 L 9.65625 -28.5625 L 9.65625 -5 L 21.234375 -5 L 21.234375 0 Z M 3.59375 0 "/></g></g></g><g fill="#ffffff" fill-opacity="1"><g transform="translate(150.03632, 328.74997)"><g><path d="M 20.046875 0 L 3.59375 0 L 3.59375 -28.5625 L 20.046875 -28.5625 L 20.046875 -23.59375 L 9.65625 -23.59375 L 9.65625 -17.328125 L 19.3125 -17.328125 L 19.3125 -12.359375 L 9.65625 -12.359375 L 9.65625 -5 L 20.046875 -5 Z M 20.046875 0 "/></g></g></g><g fill="#ffffff" fill-opacity="1"><g transform="translate(172.43648, 328.74997)"><g><path d="M 14.4375 -16.03125 L 25.765625 -16.03125 L 25.765625 -1.234375 C 23.929688 -0.628906 22.203125 -0.207031 20.578125 0.03125 C 18.953125 0.269531 17.296875 0.390625 15.609375 0.390625 C 11.296875 0.390625 8.003906 -0.875 5.734375 -3.40625 C 3.460938 -5.9375 2.328125 -9.570312 2.328125 -14.3125 C 2.328125 -18.925781 3.644531 -22.519531 6.28125 -25.09375 C 8.914062 -27.675781 12.570312 -28.96875 17.25 -28.96875 C 20.175781 -28.96875 23 -28.378906 25.71875 -27.203125 L 23.71875 -22.359375 C 21.632812 -23.398438 19.460938 -23.921875 17.203125 -23.921875 C 14.585938 -23.921875 12.492188 -23.039062 10.921875 -21.28125 C 9.347656 -19.53125 8.5625 -17.171875 8.5625 -14.203125 C 8.5625 -11.097656 9.191406 -8.726562 10.453125 -7.09375 C 11.722656 -5.46875 13.570312 -4.65625 16 -4.65625 C 17.257812 -4.65625 18.539062 -4.785156 19.84375 -5.046875 L 19.84375 -11 L 14.4375 -11 Z M 14.4375 -16.03125 "/></g></g></g><g fill="#ffffff" fill-opacity="1"><g transform="translate(201.398499, 328.74997)"><g><path d="M 9.65625 -15.875 L 11.609375 -15.875 C 13.515625 -15.875 14.921875 -16.191406 15.828125 -16.828125 C 16.742188 -17.472656 17.203125 -18.476562 17.203125 -19.84375 C 17.203125 -21.195312 16.738281 -22.160156 15.8125 -22.734375 C 14.882812 -23.304688 13.441406 -23.59375 11.484375 -23.59375 L 9.65625 -23.59375 Z M 9.65625 -10.953125 L 9.65625 0 L 3.59375 0 L 3.59375 -28.5625 L 11.921875 -28.5625 C 15.796875 -28.5625 18.664062 -27.851562 20.53125 -26.4375 C 22.394531 -25.019531 23.328125 -22.875 23.328125 -20 C 23.328125 -18.320312 22.863281 -16.828125 21.9375 -15.515625 C 21.007812 -14.210938 19.703125 -13.1875 18.015625 -12.4375 C 22.304688 -6.019531 25.101562 -1.875 26.40625 0 L 19.6875 0 L 12.875 -10.953125 Z M 9.65625 -10.953125 "/></g></g></g><g fill="#ffffff" fill-opacity="1"><g transform="translate(227.802168, 328.74997)"><g><path d="M 21.078125 0 L 19 -6.796875 L 8.59375 -6.796875 L 6.53125 0 L 0 0 L 10.078125 -28.671875 L 17.484375 -28.671875 L 27.59375 0 Z M 17.5625 -11.875 C 15.644531 -18.03125 14.566406 -21.507812 14.328125 -22.3125 C 14.085938 -23.125 13.914062 -23.765625 13.8125 -24.234375 C 13.382812 -22.566406 12.15625 -18.445312 10.125 -11.875 Z M 17.5625 -11.875 "/></g></g></g><g fill="#ffffff" fill-opacity="1"><g transform="translate(255.397133, 328.74997)"><g><path d="M 15.6875 0 L 8.8125 -22.40625 L 8.640625 -22.40625 C 8.878906 -17.84375 9 -14.800781 9 -13.28125 L 9 0 L 3.59375 0 L 3.59375 -28.5625 L 11.84375 -28.5625 L 18.59375 -6.71875 L 18.71875 -6.71875 L 25.875 -28.5625 L 34.125 -28.5625 L 34.125 0 L 28.484375 0 L 28.484375 -13.515625 C 28.484375 -14.148438 28.488281 -14.882812 28.5 -15.71875 C 28.519531 -16.550781 28.609375 -18.765625 28.765625 -22.359375 L 28.59375 -22.359375 L 21.234375 0 Z M 15.6875 0 "/></g></g></g></svg>