<svg xmlns="http://www.w3.org/2000/svg" xmlns:xlink="http://www.w3.org/1999/xlink" width="500" zoomAndPan="magnify" viewBox="0 0 375 374.999991" height="500" preserveAspectRatio="xMidYMid meet" version="1.0"><defs><filter x="0%" y="0%" width="100%" height="100%" id="b2d44c9254"><feColorMatrix values="0 0 0 0 1 0 0 0 0 1 0 0 0 0 1 0 0 0 1 0" color-interpolation-filters="sRGB"/></filter><mask id="38e9224110"><g filter="url(#b2d44c9254)"><rect x="-37.5" width="450" fill="#000000" y="-37.499999" height="449.999989" fill-opacity="0.82"/></g></mask><clipPath id="437400bf47"><path d="M 0.25 1.5625 L 262.75 1.5625 L 262.75 79.5625 L 0.25 79.5625 Z M 0.25 1.5625 " clip-rule="nonzero"/></clipPath><clipPath id="3faedab64a"><rect x="0" width="264" y="0" height="80"/></clipPath></defs><g mask="url(#38e9224110)"><g transform="matrix(1, 0, 0, 1, 56, 270)"><g clip-path="url(#3faedab64a)"><g clip-path="url(#437400bf47)"><path fill="#d9d9d9" d="M 222.59375 4.867188 L 222.425781 4.582031 L 217.5 4.582031 L 215.816406 1.5625 L 215.238281 1.5625 L 216.910156 4.582031 L 205.320312 4.582031 L 203.875 1.5625 L 203.296875 1.5625 L 204.730469 4.582031 L 193.136719 4.582031 L 191.933594 1.5625 L 191.355469 1.5625 L 192.550781 4.582031 L 180.957031 4.582031 L 179.988281 1.5625 L 179.414062 1.5625 L 180.371094 4.582031 L 168.777344 4.582031 L 168.046875 1.5625 L 167.472656 1.5625 L 168.191406 4.582031 L 156.597656 4.582031 C 156.597656 4.582031 156.105469 1.5625 156.105469 1.5625 L 155.53125 1.5625 L 156.011719 4.582031 L 144.417969 4.582031 L 144.164062 1.5625 L 143.585938 1.5625 L 143.828125 4.582031 L 132.238281 4.582031 L 132.222656 1.5625 L 131.644531 1.5625 L 131.648438 4.582031 L 120.054688 4.582031 L 120.28125 1.5625 L 119.703125 1.5625 L 119.46875 4.582031 L 107.875 4.582031 L 108.339844 1.5625 L 107.761719 1.5625 L 107.289062 4.582031 L 95.695312 4.582031 L 96.398438 1.5625 L 95.820312 1.5625 L 95.109375 4.582031 L 83.515625 4.582031 L 84.457031 1.5625 L 83.878906 1.5625 L 82.929688 4.582031 L 71.335938 4.582031 L 72.511719 1.5625 L 71.9375 1.5625 L 70.746094 4.582031 L 59.15625 4.582031 L 60.570312 1.5625 L 59.996094 1.5625 L 58.566406 4.582031 L 46.976562 4.582031 L 48.628906 1.5625 L 48.054688 1.5625 L 46.386719 4.582031 L 40.59375 4.582031 L 40.425781 4.867188 L 46.230469 4.867188 L 43.011719 10.695312 L 36.984375 10.695312 L 36.804688 11.003906 L 42.839844 11.003906 L 39.355469 17.316406 L 33.082031 17.316406 L 32.882812 17.648438 L 39.171875 17.648438 L 35.386719 24.507812 L 28.839844 24.507812 L 28.628906 24.867188 L 35.1875 24.867188 L 31.058594 32.34375 L 24.21875 32.34375 L 23.984375 32.742188 L 30.839844 32.742188 L 26.324219 40.921875 L 19.160156 40.921875 L 18.90625 41.355469 L 26.082031 41.355469 L 21.121094 50.347656 L 13.601562 50.347656 L 13.320312 50.824219 L 20.855469 50.824219 L 15.375 60.753906 L 7.464844 60.753906 L 7.152344 61.28125 L 15.082031 61.28125 L 8.996094 72.300781 L 0.65625 72.300781 L 0.308594 72.890625 L 8.671875 72.890625 L 4.855469 79.804688 L 5.730469 79.804688 L 9.519531 72.890625 L 26.25 72.890625 L 22.980469 79.804688 L 23.851562 79.804688 L 27.097656 72.890625 L 43.824219 72.890625 L 41.101562 79.804688 L 41.976562 79.804688 L 44.675781 72.890625 L 61.402344 72.890625 L 59.222656 79.804688 L 60.097656 79.804688 L 62.25 72.890625 L 78.976562 72.890625 L 77.347656 79.804688 L 78.222656 79.804688 L 79.828125 72.890625 L 96.554688 72.890625 L 95.46875 79.804688 L 96.34375 79.804688 L 97.402344 72.890625 L 114.132812 72.890625 L 113.59375 79.804688 L 114.46875 79.804688 L 114.980469 72.890625 L 131.710938 72.890625 L 131.714844 79.804688 L 132.589844 79.804688 L 132.558594 72.890625 L 149.285156 72.890625 L 149.839844 79.804688 L 150.714844 79.804688 L 150.132812 72.890625 L 166.863281 72.890625 L 167.960938 79.804688 L 168.835938 79.804688 L 167.710938 72.890625 L 184.4375 72.890625 L 186.082031 79.804688 L 186.957031 79.804688 L 185.289062 72.890625 L 202.015625 72.890625 L 204.207031 79.804688 L 205.082031 79.804688 L 202.863281 72.890625 L 219.59375 72.890625 L 222.328125 79.804688 L 223.203125 79.804688 L 220.441406 72.890625 L 237.167969 72.890625 L 240.453125 79.804688 L 241.328125 79.804688 L 238.015625 72.890625 L 254.746094 72.890625 L 258.574219 79.804688 L 259.449219 79.804688 L 255.59375 72.890625 L 262.703125 72.890625 L 262.355469 72.300781 L 255.265625 72.300781 L 249.121094 61.28125 L 255.855469 61.28125 L 255.546875 60.753906 L 248.824219 60.753906 L 243.285156 50.824219 L 249.691406 50.824219 L 249.40625 50.347656 L 243.019531 50.347656 L 238.003906 41.355469 L 244.105469 41.355469 L 243.851562 40.921875 L 237.765625 40.921875 L 233.199219 32.742188 L 239.027344 32.742188 L 238.792969 32.34375 L 232.980469 32.34375 L 228.8125 24.867188 L 234.386719 24.867188 L 234.171875 24.507812 L 228.609375 24.507812 L 224.785156 17.648438 L 230.125 17.648438 L 229.929688 17.316406 L 224.597656 17.316406 L 221.074219 11.003906 L 226.207031 11.003906 L 226.023438 10.695312 L 220.902344 10.695312 L 217.652344 4.867188 Z M 26.527344 72.300781 L 9.84375 72.300781 L 15.886719 61.28125 L 31.742188 61.28125 Z M 31.992188 60.75 L 16.175781 60.75 L 21.621094 50.824219 L 36.691406 50.824219 Z M 36.914062 50.34375 L 21.882812 50.34375 L 26.8125 41.355469 L 41.167969 41.355469 Z M 41.375 40.921875 L 27.050781 40.921875 L 31.535156 32.738281 L 45.246094 32.738281 Z M 45.433594 32.34375 L 31.753906 32.34375 L 35.851562 24.867188 L 48.96875 24.867188 Z M 49.140625 24.507812 L 36.050781 24.507812 L 39.808594 17.652344 L 52.382812 17.652344 Z M 52.542969 17.316406 L 39.992188 17.316406 L 43.453125 11.003906 L 55.527344 11.003906 Z M 55.675781 10.695312 L 43.621094 10.695312 L 46.820312 4.867188 L 58.433594 4.867188 Z M 44.058594 72.300781 L 27.375 72.300781 L 32.546875 61.28125 L 48.402344 61.28125 Z M 48.609375 60.75 L 32.796875 60.75 L 37.453125 50.824219 L 52.523438 50.824219 L 48.613281 60.75 Z M 52.710938 50.34375 L 37.679688 50.34375 L 41.898438 41.355469 L 56.253906 41.355469 Z M 56.425781 40.921875 L 42.101562 40.921875 L 45.941406 32.738281 L 59.652344 32.738281 Z M 59.804688 32.34375 L 46.125 32.34375 L 49.636719 24.867188 L 62.753906 24.867188 L 59.808594 32.34375 Z M 62.894531 24.507812 L 49.804688 24.507812 L 53.023438 17.652344 L 65.597656 17.652344 Z M 65.730469 17.316406 L 53.179688 17.316406 L 56.140625 11.003906 L 68.21875 11.003906 Z M 68.339844 10.695312 L 56.285156 10.695312 L 59.023438 4.867188 L 70.636719 4.867188 Z M 61.589844 72.300781 L 44.90625 72.300781 L 49.207031 61.28125 L 65.0625 61.28125 Z M 65.230469 60.75 L 49.414062 60.75 L 53.289062 50.824219 L 68.355469 50.824219 Z M 68.507812 50.34375 L 53.472656 50.34375 L 56.984375 41.355469 L 71.339844 41.355469 Z M 71.476562 40.921875 L 57.152344 40.921875 L 60.34375 32.738281 L 74.054688 32.738281 Z M 74.179688 32.34375 L 60.5 32.34375 L 63.417969 24.867188 L 76.535156 24.867188 Z M 76.648438 24.507812 L 63.558594 24.507812 L 66.234375 17.652344 L 78.8125 17.652344 Z M 78.914062 17.316406 L 66.367188 17.316406 L 68.828125 11.003906 L 80.90625 11.003906 Z M 81 10.695312 L 68.949219 10.695312 L 71.226562 4.867188 L 82.839844 4.867188 Z M 79.121094 72.300781 L 62.4375 72.300781 L 65.867188 61.28125 L 81.722656 61.28125 Z M 81.847656 60.75 L 66.03125 60.75 L 69.121094 50.824219 L 84.191406 50.824219 Z M 84.304688 50.34375 L 69.269531 50.34375 L 72.070312 41.355469 L 86.425781 41.355469 Z M 86.53125 40.921875 L 72.207031 40.921875 L 74.75 32.738281 L 88.460938 32.738281 Z M 88.554688 32.34375 L 74.875 32.34375 L 77.203125 24.867188 L 90.320312 24.867188 Z M 90.40625 24.507812 L 77.316406 24.507812 L 79.449219 17.652344 L 92.023438 17.652344 Z M 92.101562 17.316406 L 79.554688 17.316406 L 81.519531 11.003906 L 93.59375 11.003906 Z M 93.664062 10.695312 L 81.613281 10.695312 L 83.429688 4.867188 L 95.042969 4.867188 L 93.667969 10.695312 Z M 96.652344 72.300781 L 79.96875 72.300781 L 82.527344 61.28125 L 98.382812 61.28125 Z M 98.464844 60.75 L 82.648438 60.75 L 84.957031 50.824219 L 100.027344 50.824219 Z M 100.101562 50.34375 L 85.066406 50.34375 L 87.15625 41.355469 L 101.511719 41.355469 Z M 101.582031 40.921875 L 87.257812 40.921875 L 89.15625 32.738281 L 102.867188 32.738281 Z M 102.925781 32.34375 L 89.25 32.34375 L 90.984375 24.867188 L 104.101562 24.867188 Z M 104.160156 24.507812 L 91.070312 24.507812 L 92.660156 17.648438 L 105.234375 17.648438 Z M 105.289062 17.316406 L 92.738281 17.316406 L 94.203125 11.003906 L 106.277344 11.003906 Z M 106.328125 10.695312 L 94.277344 10.695312 L 95.628906 4.867188 L 107.246094 4.867188 Z M 114.179688 72.300781 L 97.496094 72.300781 L 99.183594 61.28125 L 115.042969 61.28125 Z M 115.082031 60.75 L 99.265625 60.75 L 100.789062 50.824219 L 115.859375 50.824219 Z M 115.894531 50.34375 L 100.863281 50.34375 L 102.242188 41.355469 L 116.597656 41.355469 Z M 116.632812 40.921875 L 102.308594 40.921875 L 103.5625 32.738281 L 117.269531 32.738281 Z M 117.300781 32.34375 L 103.621094 32.34375 L 104.769531 24.867188 L 117.886719 24.867188 Z M 117.914062 24.507812 L 104.824219 24.507812 L 105.875 17.648438 L 118.449219 17.648438 Z M 118.476562 17.316406 L 105.925781 17.316406 L 106.894531 11.003906 L 118.96875 11.003906 Z M 118.992188 10.695312 L 106.941406 10.695312 L 107.835938 4.867188 L 119.449219 4.867188 Z M 131.710938 72.300781 L 115.027344 72.300781 L 115.847656 61.28125 L 131.703125 61.28125 Z M 131.703125 60.75 L 115.886719 60.75 L 116.625 50.824219 L 131.691406 50.824219 Z M 131.691406 50.34375 L 116.660156 50.34375 L 117.328125 41.355469 L 131.683594 41.355469 Z M 131.683594 40.921875 L 117.359375 40.921875 L 117.96875 32.738281 L 131.675781 32.738281 Z M 131.675781 32.34375 L 117.996094 32.34375 L 118.550781 24.867188 L 131.667969 24.867188 Z M 131.667969 24.507812 L 118.578125 24.507812 L 119.089844 17.648438 L 131.664062 17.648438 Z M 131.664062 17.316406 L 119.113281 17.316406 L 119.582031 11.003906 L 131.65625 11.003906 Z M 131.65625 10.695312 L 119.605469 10.695312 L 120.035156 4.867188 L 131.652344 4.867188 Z M 149.242188 72.300781 L 132.558594 72.300781 L 132.507812 61.28125 L 148.363281 61.28125 Z M 148.320312 60.75 L 132.503906 60.75 L 132.457031 50.824219 L 147.527344 50.824219 Z M 147.488281 50.34375 L 132.453125 50.34375 L 132.414062 41.355469 L 146.769531 41.355469 Z M 146.734375 40.921875 L 132.410156 40.921875 L 132.371094 32.738281 L 146.082031 32.738281 Z M 146.050781 32.34375 L 132.371094 32.34375 L 132.335938 24.867188 L 145.453125 24.867188 Z M 145.421875 24.507812 L 132.332031 24.507812 L 132.300781 17.648438 L 144.875 17.648438 Z M 144.847656 17.316406 L 132.296875 17.316406 L 132.269531 11.003906 L 144.34375 11.003906 Z M 144.320312 10.695312 L 132.265625 10.695312 L 132.238281 4.867188 L 143.855469 4.867188 Z M 166.773438 72.300781 L 150.089844 72.300781 L 149.164062 61.28125 L 165.023438 61.28125 Z M 164.9375 60.75 L 149.121094 60.75 L 148.289062 50.824219 L 163.359375 50.824219 Z M 163.285156 50.34375 L 148.25 50.34375 L 147.496094 41.355469 L 161.855469 41.355469 Z M 161.785156 40.921875 L 147.460938 40.921875 L 146.777344 32.738281 L 160.484375 32.738281 Z M 160.421875 32.34375 L 146.746094 32.34375 L 146.117188 24.867188 L 159.234375 24.867188 Z M 159.179688 24.507812 L 146.085938 24.507812 L 145.515625 17.648438 L 158.089844 17.648438 Z M 158.035156 17.316406 L 145.484375 17.316406 L 144.957031 11.003906 L 157.03125 11.003906 Z M 156.984375 10.695312 L 144.929688 10.695312 L 144.445312 4.867188 L 156.058594 4.867188 Z M 184.304688 72.300781 L 167.621094 72.300781 L 165.824219 61.28125 L 181.683594 61.28125 Z M 181.554688 60.75 L 165.742188 60.75 L 164.125 50.824219 L 179.195312 50.824219 L 181.558594 60.75 Z M 179.082031 50.34375 L 164.046875 50.34375 L 162.582031 41.355469 L 176.941406 41.355469 Z M 176.835938 40.921875 L 162.511719 40.921875 L 161.183594 32.738281 L 174.890625 32.738281 Z M 174.796875 32.34375 L 161.117188 32.34375 L 159.902344 24.867188 L 173.019531 24.867188 Z M 172.933594 24.507812 L 159.84375 24.507812 L 158.726562 17.648438 L 171.300781 17.648438 Z M 171.222656 17.316406 L 158.671875 17.316406 L 157.644531 11.003906 L 169.71875 11.003906 Z M 169.644531 10.695312 L 157.59375 10.695312 L 156.644531 4.867188 L 168.257812 4.867188 Z M 201.832031 72.300781 L 185.148438 72.300781 L 182.484375 61.28125 L 198.339844 61.28125 Z M 198.171875 60.75 L 182.359375 60.75 L 179.957031 50.824219 L 195.027344 50.824219 Z M 194.875 50.34375 L 179.839844 50.34375 L 177.667969 41.355469 L 192.027344 41.355469 Z M 191.886719 40.921875 L 177.5625 40.921875 L 175.585938 32.738281 L 189.296875 32.738281 Z M 189.167969 32.34375 L 175.492188 32.34375 L 173.683594 24.867188 L 186.800781 24.867188 L 189.171875 32.34375 Z M 186.6875 24.507812 L 173.597656 24.507812 L 171.9375 17.648438 L 184.511719 17.648438 Z M 184.40625 17.316406 L 171.855469 17.316406 L 170.332031 11.003906 L 182.40625 11.003906 Z M 182.308594 10.695312 L 170.257812 10.695312 L 168.847656 4.867188 L 180.460938 4.867188 Z M 219.363281 72.300781 L 202.679688 72.300781 L 199.144531 61.28125 L 215.003906 61.28125 L 219.367188 72.300781 Z M 214.792969 60.75 L 198.976562 60.75 L 195.792969 50.824219 L 210.863281 50.824219 Z M 210.671875 50.34375 L 195.636719 50.34375 L 192.753906 41.355469 L 207.113281 41.355469 Z M 206.941406 40.921875 L 192.613281 40.921875 L 189.992188 32.738281 L 203.699219 32.738281 Z M 203.542969 32.34375 L 189.863281 32.34375 L 187.46875 24.867188 L 200.585938 24.867188 Z M 200.441406 24.507812 L 187.351562 24.507812 L 185.152344 17.648438 L 197.726562 17.648438 Z M 197.59375 17.316406 L 185.042969 17.316406 L 183.019531 11.003906 L 195.09375 11.003906 Z M 194.972656 10.695312 L 182.921875 10.695312 L 181.050781 4.867188 L 192.664062 4.867188 Z M 236.894531 72.300781 L 220.210938 72.300781 L 215.804688 61.28125 L 231.664062 61.28125 Z M 231.410156 60.75 L 215.59375 60.75 L 211.625 50.824219 L 226.695312 50.824219 Z M 226.46875 50.34375 L 211.433594 50.34375 L 207.839844 41.355469 L 222.199219 41.355469 Z M 221.992188 40.921875 L 207.667969 40.921875 L 204.398438 32.738281 L 218.105469 32.738281 Z M 217.917969 32.34375 L 204.238281 32.34375 L 201.25 24.867188 L 214.367188 24.867188 Z M 214.195312 24.507812 L 201.105469 24.507812 L 198.363281 17.648438 L 210.9375 17.648438 Z M 210.78125 17.316406 L 198.230469 17.316406 L 195.707031 11.003906 L 207.78125 11.003906 Z M 207.636719 10.695312 L 195.582031 10.695312 L 193.253906 4.867188 L 204.867188 4.867188 Z M 254.425781 72.300781 L 237.742188 72.300781 L 232.464844 61.28125 L 248.320312 61.28125 Z M 248.027344 60.75 L 232.210938 60.75 L 227.457031 50.824219 L 242.527344 50.824219 Z M 242.261719 50.34375 L 227.230469 50.34375 L 222.925781 41.355469 L 237.28125 41.355469 Z M 237.042969 40.921875 L 222.71875 40.921875 L 218.800781 32.738281 L 232.511719 32.738281 Z M 232.289062 32.34375 L 218.609375 32.34375 L 215.03125 24.867188 L 228.148438 24.867188 Z M 227.949219 24.507812 L 214.859375 24.507812 L 211.574219 17.648438 L 224.148438 17.648438 Z M 223.964844 17.316406 L 211.414062 17.316406 L 208.394531 11.003906 L 220.46875 11.003906 Z M 220.296875 10.695312 L 208.246094 10.695312 L 205.453125 4.867188 L 217.070312 4.867188 C 217.070312 4.867188 220.296875 10.695312 220.296875 10.695312 Z M 220.296875 10.695312 " fill-opacity="1" fill-rule="nonzero"/></g></g></g></g></svg>