<svg xmlns="http://www.w3.org/2000/svg" xmlns:xlink="http://www.w3.org/1999/xlink" width="500" zoomAndPan="magnify" viewBox="0 0 375 374.999991" height="500" preserveAspectRatio="xMidYMid meet" version="1.0"><defs><clipPath id="4398c3f848"><path d="M 56.34375 56.015625 L 318 56.015625 L 318 319.265625 L 56.34375 319.265625 Z M 56.34375 56.015625 " clip-rule="nonzero"/></clipPath></defs><g clip-path="url(#4398c3f848)"><path fill="#f0f0f0" d="M 240.089844 319.265625 C 232.734375 319.265625 226.066406 315.785156 221.792969 309.726562 L 193.753906 269.917969 L 136.820312 310.046875 L 128.394531 212.972656 L 69.671875 185.789062 C 61.414062 181.964844 56.421875 173.9375 56.652344 164.839844 C 56.886719 155.746094 62.269531 147.980469 70.71875 144.582031 L 286.523438 57.679688 C 289.242188 56.585938 292.082031 56.027344 294.960938 56.027344 C 300.34375 56.027344 305.566406 57.996094 309.664062 61.574219 C 316.054688 67.148438 318.742188 75.726562 316.671875 83.972656 L 261.910156 302.257812 C 259.398438 312.273438 250.425781 319.265625 240.089844 319.265625 Z M 240.089844 319.265625 " fill-opacity="1" fill-rule="evenodd"/></g><path fill="#ffffff" d="M 307.433594 64.125 C 303.949219 61.085938 299.519531 59.414062 294.957031 59.414062 C 292.511719 59.414062 290.101562 59.890625 287.78125 60.820312 L 71.980469 147.726562 C 64.8125 150.613281 60.238281 157.203125 60.039062 164.929688 C 59.84375 172.652344 64.082031 179.46875 71.09375 182.714844 L 131.601562 210.730469 L 139.683594 303.886719 L 194.570312 265.199219 L 224.558594 307.773438 C 228.183594 312.921875 233.84375 315.871094 240.082031 315.871094 C 248.863281 315.871094 256.484375 309.929688 258.621094 301.429688 L 313.386719 83.148438 C 315.140625 76.148438 312.859375 68.859375 307.433594 64.125 Z M 307.433594 64.125 " fill-opacity="1" fill-rule="evenodd"/><path fill="#009eff" d="M 74.511719 154.019531 L 290.316406 67.109375 C 299.648438 63.351562 309.261719 71.734375 306.8125 81.5 L 252.054688 299.785156 C 249.488281 310.003906 236.164062 312.480469 230.101562 303.867188 L 178.796875 231.027344 L 138.015625 206.226562 L 73.941406 176.5625 C 64.167969 172.039062 64.523438 158.039062 74.511719 154.019531 Z M 74.511719 154.019531 " fill-opacity="1" fill-rule="evenodd"/><path fill="#00c6ff" d="M 178.796875 231.027344 L 302.984375 69.238281 L 138.015625 206.226562 L 145.417969 291.554688 Z M 178.796875 231.027344 " fill-opacity="1" fill-rule="evenodd"/><path fill="#0578d7" d="M 196.214844 255.753906 L 178.796875 231.027344 L 145.417969 291.554688 Z M 196.214844 255.753906 " fill-opacity="1" fill-rule="evenodd"/></svg>