<svg xmlns="http://www.w3.org/2000/svg" xmlns:xlink="http://www.w3.org/1999/xlink" width="500" zoomAndPan="magnify" viewBox="0 0 375 374.999991" height="500" preserveAspectRatio="xMidYMid meet" version="1.0"><defs><clipPath id="5d21ef7941"><path d="M 158 102 L 308.414062 102 L 308.414062 318.75 L 158 318.75 Z M 158 102 " clip-rule="nonzero"/></clipPath><clipPath id="01ed082359"><path d="M 67 56.25 L 217 56.25 L 217 272 L 67 272 Z M 67 56.25 " clip-rule="nonzero"/></clipPath></defs><g clip-path="url(#5d21ef7941)"><path fill="#ffffff" d="M 307.957031 317.726562 C 301.019531 306.675781 294.078125 295.625 287.132812 284.570312 L 276.703125 268.03125 L 266.238281 251.488281 L 245.273438 218.421875 L 225.605469 187.453125 L 250.929688 150.265625 L 257.59375 140.488281 C 259.828125 137.234375 262.039062 133.972656 264.285156 130.726562 L 277.753906 111.269531 L 283.203125 103.402344 L 211.375 102.917969 L 209.863281 105.621094 C 207.648438 109.585938 205.484375 113.570312 203.300781 117.550781 L 201.667969 120.539062 L 200.058594 123.539062 L 196.816406 129.527344 L 190.417969 141.546875 L 187.152344 147.746094 C 185.910156 145.855469 184.664062 143.96875 183.417969 142.085938 L 179.597656 136.375 L 175.742188 130.679688 L 171.886719 125 L 167.976562 119.347656 C 165.359375 115.578125 162.699219 111.835938 160.003906 108.121094 C 159.925781 107.988281 159.8125 107.902344 159.664062 107.863281 C 159.515625 107.824219 159.371094 107.84375 159.238281 107.921875 C 159.105469 108 159.019531 108.113281 158.980469 108.261719 C 158.941406 108.410156 158.960938 108.550781 159.039062 108.683594 C 160.996094 112.828125 163.007812 116.953125 165.074219 121.046875 L 168.164062 127.191406 L 171.296875 133.3125 L 174.457031 139.414062 L 177.640625 145.5 C 179.789062 149.542969 181.925781 153.59375 184.101562 157.621094 L 187.238281 163.4375 L 190.976562 157.574219 C 193.414062 153.742188 195.796875 149.890625 198.207031 146.042969 L 205.371094 134.472656 L 208.921875 128.664062 L 210.695312 125.773438 L 212.457031 122.878906 C 214.234375 119.933594 216.019531 116.996094 217.78125 114.042969 C 219.191406 114.042969 262.132812 113.878906 263.839844 113.847656 L 256.457031 125.566406 C 254.359375 128.90625 252.226562 132.21875 250.109375 135.550781 L 243.738281 145.519531 L 218.214844 185.378906 L 216.886719 187.453125 L 218.214844 189.378906 L 240.34375 221.675781 L 262.515625 253.941406 L 273.605469 270.066406 L 284.730469 286.171875 C 292.140625 296.925781 299.578125 307.652344 307.039062 318.355469 C 307.125 318.476562 307.242188 318.554688 307.386719 318.582031 C 307.535156 318.613281 307.671875 318.585938 307.796875 318.503906 C 307.921875 318.417969 308 318.304688 308.03125 318.15625 C 308.0625 318.007812 308.039062 317.871094 307.957031 317.746094 Z M 307.957031 317.726562 " fill-opacity="1" fill-rule="nonzero"/></g><g clip-path="url(#01ed082359)"><path fill="#ffffff" d="M 209.972656 253.714844 L 206.882812 247.570312 L 203.753906 241.453125 L 200.59375 235.347656 L 197.40625 229.265625 C 195.261719 225.214844 193.125 221.167969 190.945312 217.140625 L 187.808594 211.324219 L 184.074219 217.191406 C 181.632812 221.015625 179.253906 224.875 176.839844 228.71875 L 169.671875 240.289062 L 166.125 246.097656 L 164.347656 248.992188 L 162.59375 251.882812 C 160.816406 254.832031 159.046875 257.777344 157.289062 260.71875 C 155.882812 260.71875 112.941406 260.886719 111.230469 260.921875 L 118.589844 249.203125 C 120.691406 245.863281 122.828125 242.546875 124.945312 239.21875 L 131.316406 229.246094 L 156.835938 189.386719 L 158.164062 187.3125 L 156.835938 185.382812 L 134.710938 153.152344 L 112.535156 120.957031 L 101.449219 104.867188 L 90.3125 88.792969 C 82.910156 78.074219 75.472656 67.371094 68.007812 56.691406 C 67.925781 56.570312 67.8125 56.492188 67.667969 56.464844 C 67.523438 56.433594 67.390625 56.457031 67.265625 56.535156 C 67.140625 56.617188 67.058594 56.730469 67.023438 56.878906 C 66.992188 57.027344 67.011719 57.164062 67.09375 57.292969 C 74.035156 68.328125 80.976562 79.359375 87.917969 90.378906 L 98.34375 106.910156 L 108.808594 123.414062 L 129.769531 156.417969 L 149.441406 187.316406 L 124.132812 224.503906 L 117.46875 234.277344 C 115.234375 237.527344 113.027344 240.796875 110.777344 244.039062 L 97.308594 263.5 L 91.863281 271.367188 L 163.691406 271.851562 L 165.210938 269.121094 C 167.421875 265.160156 169.589844 261.171875 171.769531 257.195312 L 173.40625 254.207031 L 175.023438 251.214844 L 178.265625 245.226562 L 184.632812 233.222656 L 187.894531 227.027344 L 191.632812 232.679688 L 195.449219 238.390625 L 199.304688 244.089844 L 203.160156 249.765625 L 207.070312 255.421875 C 209.6875 259.1875 212.34375 262.929688 215.042969 266.644531 C 215.128906 266.757812 215.238281 266.828125 215.378906 266.855469 C 215.515625 266.882812 215.644531 266.863281 215.769531 266.789062 C 215.890625 266.71875 215.972656 266.613281 216.011719 266.480469 C 216.054688 266.34375 216.042969 266.210938 215.984375 266.085938 C 214.042969 261.949219 212.039062 257.824219 209.972656 253.714844 Z M 209.972656 253.714844 " fill-opacity="1" fill-rule="nonzero"/></g></svg>